<?xml version="1.0" encoding="UTF-8"?>
<svg id="Layer_2" data-name="Layer 2" xmlns="http://www.w3.org/2000/svg" xmlns:xlink="http://www.w3.org/1999/xlink" viewBox="0 0 431.02 95.26">
  <defs>
    <style>
      .cls-1 {
        fill: none;
      }

      .cls-2 {
        fill: #595a5a;
      }

      .cls-3 {
        clip-path: url(#clippath-1);
      }

      .cls-4 {
        fill: #04764b;
      }

      .cls-5 {
        fill: #007a4b;
      }

      .cls-6 {
        clip-path: url(#clippath);
      }
    </style>
    <clipPath id="clippath">
      <rect class="cls-1" width="431.02" height="95.26"/>
    </clipPath>
    <clipPath id="clippath-1">
      <rect class="cls-1" y="0" width="431.02" height="95.26"/>
    </clipPath>
  </defs>
  <g id="Layer_1-2" data-name="Layer 1">
    <g id="_لوقو_وقاء" data-name="لوقو وقاء">
      <g class="cls-6">
        <polygon class="cls-4" points="17.1 23.09 14.75 36.13 14.71 36.13 12.72 23.09 7.92 23.09 5.87 36.13 5.82 36.13 3.55 23.09 0 23.09 3.46 39.03 8.03 39.03 10.27 26.06 10.31 26.06 12.5 39.03 17.1 39.03 20.56 23.09 17.1 23.09"/>
        <polygon class="cls-4" points="22.94 23.09 32.54 23.09 32.54 25.7 26.2 25.7 26.2 29.59 32.03 29.59 32.03 32.2 26.2 32.2 26.2 36.42 32.74 36.42 32.74 39.03 22.94 39.03 22.94 23.09"/>
        <g class="cls-3">
          <path class="cls-4" d="M49.81,31.08c0,1.64-.29,3.07-.87,4.3-.58,1.23-1.45,2.18-2.61,2.87l2.43,3.39h-3.59l-1.67-2.43c-.22.03-.42.05-.59.07-.17.01-.36.02-.57.02-1.2,0-2.27-.2-3.2-.61-.93-.41-1.71-.98-2.34-1.71-.63-.73-1.11-1.6-1.44-2.6-.33-1.01-.49-2.1-.49-3.29s.16-2.31.49-3.31c.33-1,.81-1.88,1.44-2.62.63-.74,1.42-1.32,2.37-1.72.95-.4,2.01-.6,3.18-.6s2.23.2,3.17.59c.94.39,1.73.97,2.38,1.72.65.75,1.13,1.63,1.45,2.63.32,1,.48,2.11.48,3.31M46.58,31.08c0-.77-.09-1.51-.26-2.2s-.43-1.29-.78-1.81c-.35-.51-.79-.92-1.33-1.21-.53-.29-1.16-.44-1.88-.44s-1.34.15-1.88.45c-.54.3-.98.7-1.32,1.2-.33.51-.59,1.11-.76,1.8-.17.69-.26,1.42-.26,2.2s.08,1.5.26,2.19c.17.69.43,1.28.78,1.78.35.51.79.9,1.33,1.19.54.29,1.16.44,1.88.44s1.34-.15,1.89-.44c.54-.29.99-.69,1.33-1.21.34-.51.59-1.11.76-1.78.16-.68.25-1.4.25-2.18"/>
          <path class="cls-4" d="M54.08,39.03h-3.46l5.74-15.93h4.46l5.71,15.93h-3.5l-1.43-3.88h-6.14l-1.39,3.88ZM56.22,32.51h4.62l-2.3-6.87-2.32,6.87Z"/>
          <path class="cls-4" d="M70.08,39.03h-3.46l5.74-15.93h4.46l5.71,15.93h-3.5l-1.43-3.88h-6.14l-1.38,3.88ZM72.22,32.51h4.62l-2.3-6.87-2.32,6.87Z"/>
          <path class="cls-4" d="M100.77,25.99c-.43-.16-.89-.3-1.38-.4-.49-.1-.98-.16-1.47-.16-.85,0-1.6.15-2.24.46-.65.31-1.18.71-1.6,1.23-.42.51-.73,1.12-.95,1.81-.22.69-.32,1.43-.32,2.2,0,.73.11,1.43.32,2.1.22.67.54,1.26.96,1.77.42.51.96.92,1.6,1.23.64.31,1.38.46,2.21.46.6,0,1.14-.05,1.63-.16s.95-.25,1.38-.45l.56,2.52c-.57.24-1.19.41-1.86.52-.68.11-1.37.17-2.09.17-1.21,0-2.3-.2-3.28-.6-.98-.4-1.82-.97-2.52-1.7-.7-.73-1.24-1.59-1.61-2.59-.37-1-.56-2.1-.56-3.3s.18-2.31.55-3.33c.36-1.01.89-1.89,1.58-2.62.69-.74,1.54-1.31,2.56-1.72,1.01-.41,2.14-.61,3.39-.61.71,0,1.39.05,2.02.16.63.11,1.21.26,1.73.47l-.6,2.54Z"/>
          <polygon class="cls-4" points="104 23.09 113.6 23.09 113.6 25.7 107.26 25.7 107.26 29.59 113.08 29.59 113.08 32.2 107.26 32.2 107.26 36.42 113.8 36.42 113.8 39.03 104 39.03 104 23.09"/>
          <polygon class="cls-4" points="126.34 35.81 126.39 35.81 126.39 23.09 129.44 23.09 129.44 39.03 124.58 39.03 119.56 26.13 119.51 26.13 119.51 39.03 116.48 39.03 116.48 23.09 121.5 23.09 126.34 35.81"/>
          <polygon class="cls-4" points="135.65 25.7 131.41 25.7 131.41 23.09 143.06 23.09 143.06 25.7 138.91 25.7 138.91 39.03 135.65 39.03 135.65 25.7"/>
          <polygon class="cls-4" points="145.04 23.09 154.64 23.09 154.64 25.7 148.3 25.7 148.3 29.59 154.13 29.59 154.13 32.2 148.3 32.2 148.3 36.42 154.84 36.42 154.84 39.03 145.04 39.03 145.04 23.09"/>
          <path class="cls-4" d="M157.52,23.09h6.18c.71,0,1.41.07,2.08.22.67.15,1.26.39,1.77.73.51.33.92.78,1.23,1.34.3.56.46,1.24.46,2.04,0,.94-.23,1.72-.7,2.33-.47.62-1.13,1.07-2,1.37v.04c.25.09.48.2.67.34.19.13.36.31.51.52.15.22.29.49.42.81.13.33.27.75.4,1.27.25.8.5,1.61.74,2.42.24.81.48,1.64.74,2.49h-3.5c-.08-.28-.16-.61-.26-.99-.1-.38-.19-.76-.29-1.15s-.19-.76-.28-1.1c-.09-.35-.17-.66-.25-.93-.12-.43-.24-.79-.38-1.08-.13-.29-.31-.52-.52-.69-.22-.17-.5-.29-.86-.37-.36-.07-.82-.11-1.38-.11h-1.52v6.43h-3.26v-15.93ZM160.78,29.99h2.14c.45,0,.85-.03,1.23-.1.37-.07.7-.18.97-.35.27-.16.49-.38.64-.66.15-.27.22-.62.22-1.04s-.08-.79-.25-1.07c-.16-.28-.38-.5-.66-.66-.28-.16-.6-.26-.96-.32-.37-.06-.73-.09-1.11-.09h-2.23v4.28Z"/>
          <polygon class="cls-2" points="6.22 77.76 6.24 77.76 6.24 73.07 7.36 73.07 7.36 78.95 5.57 78.95 3.71 74.19 3.7 74.19 3.7 78.95 2.58 78.95 2.58 73.07 4.43 73.07 6.22 77.76"/>
          <path class="cls-2" d="M11.08,76.11c0-.23-.08-.41-.24-.53-.16-.13-.4-.19-.72-.19-.16,0-.33.02-.52.05-.19.03-.39.09-.6.16l-.21-.84c.19-.07.42-.13.68-.18.27-.05.51-.07.73-.07.71,0,1.24.15,1.57.44.33.29.49.7.48,1.23v1.8c0,.16,0,.33.01.52,0,.18.03.34.05.47h-1.04c-.02-.07-.04-.16-.06-.27-.02-.11-.03-.2-.03-.27h-.02c-.11.19-.27.35-.49.46-.22.12-.48.17-.77.17-.19,0-.38-.02-.57-.07-.19-.05-.36-.12-.51-.23-.15-.11-.27-.25-.36-.42-.09-.17-.13-.38-.14-.63,0-.31.07-.57.21-.77.14-.2.34-.35.59-.45.25-.1.55-.17.89-.21.34-.04.69-.05,1.05-.05v-.11ZM10.92,76.94c-.2,0-.38.01-.56.03-.18.02-.33.06-.47.11-.13.05-.24.12-.31.22-.07.09-.11.21-.11.35,0,.19.06.33.17.44.12.1.27.16.47.16.17,0,.31-.03.43-.08.12-.06.23-.13.31-.23.08-.1.14-.21.17-.32.03-.11.05-.24.05-.36v-.31h-.16Z"/>
          <path class="cls-2" d="M12.83,74.6h.67v-1.15h1.17v1.15h.91v.88h-.91v1.94c0,.15,0,.27.02.36.01.09.04.16.07.21.03.04.09.07.15.09.06.02.15.02.25.02.07,0,.14,0,.19,0,.06,0,.12-.01.19-.02v.87c-.11.01-.23.02-.36.03-.13,0-.26.01-.4.01-.27,0-.5-.03-.66-.08-.17-.06-.3-.14-.39-.24-.09-.1-.16-.23-.19-.39-.03-.16-.05-.34-.05-.55v-2.25h-.67v-.88Z"/>
          <path class="cls-2" d="M17.51,73.93h-1.17v-1.01h1.17v1.01ZM17.51,78.95h-1.17v-4.35h1.17v4.35Z"/>
          <path class="cls-2" d="M22.9,76.77c0,.36-.05.68-.16.96-.11.28-.26.52-.45.72-.19.19-.42.34-.7.45-.27.1-.58.16-.91.16s-.65-.05-.92-.16c-.27-.1-.5-.26-.7-.45-.19-.2-.34-.44-.44-.72-.1-.28-.16-.6-.16-.96s.05-.67.16-.95c.1-.28.25-.52.44-.71.19-.19.42-.34.7-.44.27-.1.58-.16.92-.16s.65.05.92.16c.27.1.5.25.7.44.19.19.34.43.44.71.1.28.16.6.16.95M21.73,76.77c0-.2-.02-.39-.07-.56-.04-.17-.11-.32-.19-.44-.09-.12-.19-.21-.33-.28s-.29-.1-.46-.1c-.34,0-.6.12-.78.37-.18.25-.27.59-.27,1.01s.09.77.26,1.02c.18.25.44.37.78.38.35,0,.61-.13.79-.38.17-.25.26-.59.26-1.02"/>
          <path class="cls-2" d="M25,74.6v.58h.02c.11-.22.29-.39.53-.51.24-.12.51-.18.79-.18.25,0,.47.04.67.11.2.07.37.18.51.32.14.14.25.31.32.5s.11.41.11.65v2.87h-1.17v-2.43c0-.18-.01-.34-.04-.48-.02-.15-.07-.26-.13-.36-.06-.09-.14-.17-.25-.22-.11-.05-.24-.08-.4-.08-.12,0-.23.02-.34.06-.11.04-.21.11-.3.21-.09.09-.17.22-.22.38-.05.15-.08.34-.08.56v2.36h-1.17v-4.35h1.15Z"/>
          <path class="cls-2" d="M31.56,76.11c0-.23-.08-.41-.24-.53-.16-.13-.4-.19-.73-.19-.16,0-.33.02-.52.05-.19.03-.39.09-.6.16l-.21-.84c.19-.07.42-.13.68-.18.27-.05.51-.07.73-.07.71,0,1.24.15,1.57.44.33.29.49.7.48,1.23v1.8c0,.16,0,.33.01.52,0,.18.02.34.05.47h-1.04c-.02-.07-.04-.16-.06-.27-.02-.11-.03-.2-.03-.27h-.02c-.11.19-.27.35-.49.46-.22.12-.48.17-.77.17-.19,0-.38-.02-.57-.07-.19-.05-.36-.12-.51-.23-.16-.11-.27-.25-.36-.42-.09-.17-.13-.38-.14-.63,0-.31.07-.57.21-.77.14-.2.34-.35.59-.45.25-.1.55-.17.89-.21.34-.04.69-.05,1.05-.05v-.11ZM31.4,76.94c-.2,0-.38.01-.56.03-.18.02-.33.06-.47.11-.13.05-.24.12-.31.22-.07.09-.11.21-.11.35,0,.19.06.33.17.44.11.1.27.16.47.16.17,0,.31-.03.43-.08.12-.06.23-.13.31-.23.08-.1.14-.21.17-.32.03-.11.05-.24.05-.36v-.31h-.16Z"/>
          <rect class="cls-2" x="33.87" y="72.89" width="1.17" height="6.06"/>
          <path class="cls-2" d="M42.33,74.14c-.16-.06-.33-.11-.51-.15-.18-.04-.36-.06-.54-.06-.31,0-.59.06-.83.17-.24.11-.44.26-.59.45-.15.19-.27.41-.35.67-.08.26-.12.52-.12.81,0,.27.04.53.12.77.08.25.2.47.35.66.16.19.35.34.59.45.24.11.51.17.82.17.22,0,.42-.02.6-.06.18-.04.35-.09.51-.17l.21.93c-.21.09-.44.15-.69.19-.25.04-.51.06-.77.06-.44,0-.85-.07-1.21-.22-.36-.15-.67-.36-.93-.63-.26-.27-.46-.59-.59-.96-.14-.37-.21-.77-.21-1.22s.07-.85.2-1.23c.13-.37.33-.7.59-.97.25-.27.57-.48.94-.64.37-.15.79-.23,1.25-.23.26,0,.51.02.75.06.23.04.45.1.64.17l-.22.94Z"/>
          <path class="cls-2" d="M44.25,77.12c.02.2.07.36.15.49.08.13.18.24.31.32.13.08.27.15.44.19.17.04.35.06.53.06.16,0,.34-.01.52-.04.18-.02.36-.06.52-.12l.13.86c-.19.06-.39.1-.6.13-.21.03-.45.05-.71.05-.39,0-.74-.06-1.04-.17-.3-.11-.56-.26-.77-.46-.21-.2-.37-.44-.48-.72-.11-.28-.16-.58-.16-.92s.05-.64.15-.92c.1-.28.25-.52.43-.73.19-.2.42-.36.69-.47.27-.11.58-.17.91-.17s.6.05.84.15c.24.1.45.25.61.43.17.19.29.41.38.68.09.26.13.56.13.89v.47h-2.98ZM45.25,75.29c-.28,0-.5.09-.68.28-.18.19-.29.43-.32.73h1.89c0-.3-.07-.55-.23-.73-.16-.19-.38-.28-.65-.28"/>
          <path class="cls-2" d="M49.3,74.6v.58h.02c.11-.22.29-.39.53-.51.24-.12.51-.18.79-.18.25,0,.47.04.67.11.2.07.37.18.51.32.14.14.25.31.32.5.07.19.11.41.11.65v2.87h-1.17v-2.43c0-.18-.01-.34-.04-.48-.02-.15-.07-.26-.13-.36-.06-.09-.14-.17-.25-.22-.1-.05-.24-.08-.4-.08-.12,0-.23.02-.33.06-.11.04-.21.11-.3.21-.09.09-.17.22-.22.38-.05.15-.08.34-.08.56v2.36h-1.17v-4.35h1.15Z"/>
          <path class="cls-2" d="M52.87,74.6h.67v-1.15h1.17v1.15h.91v.88h-.91v1.94c0,.15,0,.27.02.36.01.09.04.16.07.21.03.04.09.07.15.09.06.02.15.02.25.02.07,0,.13,0,.19,0,.06,0,.12-.01.19-.02v.87c-.11.01-.23.02-.36.03-.13,0-.26.01-.4.01-.27,0-.49-.03-.66-.08-.17-.06-.3-.14-.39-.24-.09-.1-.16-.23-.19-.39-.03-.16-.05-.34-.05-.55v-2.25h-.67v-.88Z"/>
          <path class="cls-2" d="M57.26,77.12c.02.2.07.36.15.49.08.13.18.24.31.32.13.08.27.15.44.19.17.04.35.06.53.06.16,0,.34-.01.52-.04.18-.02.36-.06.52-.12l.13.86c-.19.06-.39.1-.61.13-.21.03-.45.05-.7.05-.39,0-.74-.06-1.04-.17-.31-.11-.56-.26-.77-.46-.21-.2-.37-.44-.48-.72-.11-.28-.16-.58-.16-.92s.05-.64.15-.92c.1-.28.25-.52.43-.73.19-.2.42-.36.69-.47.27-.11.58-.17.91-.17s.6.05.84.15c.24.1.45.25.61.43.17.19.29.41.38.68.09.26.13.56.13.89v.47h-2.98ZM58.26,75.29c-.28,0-.5.09-.68.28-.18.19-.29.43-.32.73h1.89c0-.3-.07-.55-.23-.73-.16-.19-.38-.28-.65-.28"/>
          <path class="cls-2" d="M63.72,75.42c-.06-.01-.11-.02-.17-.02-.05,0-.11,0-.17,0-.14,0-.28.03-.4.07-.13.05-.24.13-.34.25-.1.12-.18.27-.23.46-.05.19-.08.42-.08.69v2.1h-1.17v-4.35h1.15v.57h.02c.21-.44.59-.67,1.14-.67.06,0,.11,0,.17,0s.11,0,.16.01l-.06.9Z"/>
          <path class="cls-2" d="M69.05,73.83c-.08-.02-.17-.04-.26-.04-.09,0-.17,0-.24,0-.22,0-.38.05-.48.14-.1.1-.15.25-.15.47v.21h.92v.88h-.92v3.47h-1.17v-3.47h-.7v-.88h.7v-.29c0-.21.03-.4.08-.57.06-.17.15-.32.28-.45.13-.13.3-.22.52-.29.21-.07.47-.1.78-.1.12,0,.24,0,.37.02.13.01.25.03.36.05l-.08.86Z"/>
          <path class="cls-2" d="M73.54,76.77c0,.36-.05.68-.16.96-.11.28-.26.52-.45.72-.19.19-.42.34-.7.45-.27.1-.58.16-.91.16s-.65-.05-.92-.16c-.27-.1-.5-.26-.7-.45-.19-.2-.34-.44-.44-.72-.1-.28-.16-.6-.16-.96s.05-.67.16-.95c.1-.28.25-.52.44-.71.19-.19.43-.34.7-.44.27-.1.58-.16.92-.16s.65.05.92.16c.27.1.5.25.69.44.19.19.34.43.44.71.1.28.16.6.16.95M72.38,76.77c0-.2-.02-.39-.07-.56-.04-.17-.11-.32-.19-.44-.09-.12-.19-.21-.33-.28-.13-.07-.29-.1-.46-.1-.34,0-.6.12-.78.37-.18.25-.27.59-.27,1.01s.09.77.26,1.02c.18.25.44.37.78.38.35,0,.61-.13.79-.38.17-.25.26-.59.26-1.02"/>
          <path class="cls-2" d="M77.06,75.42c-.06-.01-.11-.02-.17-.02-.06,0-.11,0-.17,0-.14,0-.28.03-.4.07-.13.05-.24.13-.34.25-.1.12-.18.27-.23.46-.06.19-.08.42-.08.69v2.1h-1.17v-4.35h1.15v.57h.02c.21-.44.59-.67,1.14-.67.06,0,.11,0,.17,0s.11,0,.16.01l-.06.9Z"/>
          <path class="cls-2" d="M79.42,74.6h.67v-1.15h1.17v1.15h.91v.88h-.91v1.94c0,.15,0,.27.02.36.01.09.04.16.07.21.04.04.09.07.15.09.06.02.15.02.25.02.07,0,.14,0,.19,0,.06,0,.12-.01.19-.02v.87c-.11.01-.23.02-.36.03-.13,0-.26.01-.4.01-.28,0-.5-.03-.66-.08-.17-.06-.3-.14-.39-.24-.09-.1-.16-.23-.19-.39-.03-.16-.05-.34-.05-.55v-2.25h-.67v-.88Z"/>
          <path class="cls-2" d="M84.11,72.89v2.29h.02c.12-.22.29-.39.52-.51.23-.12.49-.18.77-.18.24,0,.46.04.66.11.2.07.37.18.51.32.14.14.25.31.32.5s.11.41.11.65v2.87h-1.17v-2.43c0-.17-.01-.33-.04-.48-.03-.14-.07-.26-.13-.36-.06-.1-.14-.17-.25-.22-.1-.05-.24-.08-.39-.08-.12,0-.23.02-.34.06-.11.04-.21.11-.3.21-.09.1-.16.22-.22.38-.06.16-.08.34-.08.56v2.36h-1.17v-6.06h1.17Z"/>
          <path class="cls-2" d="M89.1,77.12c.02.2.07.36.15.49.08.13.18.24.31.32.13.08.27.15.44.19.17.04.35.06.53.06.17,0,.34-.01.52-.04.18-.02.36-.06.52-.12l.13.86c-.19.06-.39.1-.61.13-.21.03-.45.05-.7.05-.39,0-.74-.06-1.04-.17-.31-.11-.56-.26-.77-.46-.21-.2-.37-.44-.48-.72-.11-.28-.16-.58-.16-.92s.05-.64.15-.92c.1-.28.25-.52.43-.73.19-.2.42-.36.69-.47.27-.11.58-.17.91-.17s.6.05.84.15c.24.1.45.25.61.43.17.19.29.41.38.68.08.26.13.56.13.89v.47h-2.98ZM90.1,75.29c-.28,0-.5.09-.68.28-.18.19-.29.43-.32.73h1.89c0-.3-.07-.55-.23-.73-.16-.19-.38-.28-.65-.28"/>
          <path class="cls-2" d="M95.21,73.07h2.21c.29,0,.56.03.82.09.26.06.49.16.68.31.19.14.35.33.46.56.11.23.17.52.17.86s-.06.64-.17.89c-.11.24-.27.44-.46.59-.19.15-.42.26-.68.33-.25.07-.53.1-.81.1h-1.01v2.15h-1.2v-5.88ZM96.42,75.83h.88c.14,0,.28,0,.42-.05.14-.04.25-.09.34-.16.09-.07.16-.16.21-.27.05-.11.08-.25.08-.42,0-.34-.11-.58-.31-.71-.2-.13-.46-.2-.8-.19h-.82v1.8Z"/>
          <path class="cls-2" d="M102.86,75.42c-.06-.01-.11-.02-.17-.02-.06,0-.11,0-.17,0-.14,0-.28.03-.4.07-.13.05-.24.13-.34.25-.1.12-.18.27-.23.46-.06.19-.08.42-.08.69v2.1h-1.17v-4.35h1.15v.57h.02c.21-.44.59-.67,1.14-.67.06,0,.11,0,.17,0s.11,0,.16.01l-.06.9Z"/>
          <path class="cls-2" d="M104.28,77.12c.02.2.07.36.15.49.08.13.18.24.31.32.13.08.27.15.44.19.17.04.35.06.53.06.17,0,.34-.01.52-.04.18-.02.36-.06.52-.12l.13.86c-.19.06-.39.1-.61.13-.21.03-.45.05-.7.05-.39,0-.74-.06-1.04-.17-.31-.11-.56-.26-.77-.46-.21-.2-.37-.44-.48-.72-.11-.28-.16-.58-.16-.92s.05-.64.15-.92c.1-.28.25-.52.43-.73.19-.2.42-.36.69-.47.27-.11.58-.17.91-.17s.6.05.84.15c.24.1.45.25.61.43.17.19.29.41.38.68.08.26.13.56.13.89v.47h-2.98ZM105.28,75.29c-.28,0-.5.09-.68.28-.18.19-.29.43-.32.73h1.89c0-.3-.07-.55-.23-.73-.16-.19-.38-.28-.65-.28"/>
          <polygon class="cls-2" points="109.93 77.9 109.94 77.9 110.98 74.6 112.22 74.6 110.6 78.95 109.23 78.95 107.64 74.6 108.9 74.6 109.93 77.9"/>
          <path class="cls-2" d="M113.78,77.12c.02.2.07.36.15.49.08.13.18.24.31.32.13.08.27.15.44.19.17.04.35.06.53.06.17,0,.34-.01.52-.04.18-.02.36-.06.52-.12l.13.86c-.19.06-.39.1-.61.13-.21.03-.45.05-.7.05-.39,0-.74-.06-1.04-.17-.31-.11-.56-.26-.77-.46-.21-.2-.37-.44-.48-.72-.11-.28-.16-.58-.16-.92s.05-.64.15-.92c.1-.28.25-.52.43-.73.19-.2.42-.36.69-.47.27-.11.58-.17.91-.17s.6.05.84.15c.24.1.45.25.61.43.17.19.29.41.38.68.08.26.13.56.13.89v.47h-2.98ZM114.79,75.29c-.28,0-.5.09-.68.28-.18.19-.29.43-.32.73h1.89c0-.3-.07-.55-.23-.73-.16-.19-.38-.28-.65-.28"/>
          <path class="cls-2" d="M118.83,74.6v.58h.02c.11-.22.29-.39.53-.51.25-.12.51-.18.79-.18.25,0,.47.04.67.11.2.07.37.18.51.32.14.14.25.31.32.5.07.19.11.41.11.65v2.87h-1.17v-2.43c0-.18-.01-.34-.04-.48-.02-.15-.07-.26-.13-.36-.06-.09-.14-.17-.25-.22-.11-.05-.24-.08-.4-.08-.12,0-.23.02-.33.06-.11.04-.21.11-.3.21-.09.09-.17.22-.22.38-.05.15-.08.34-.08.56v2.36h-1.17v-4.35h1.14Z"/>
          <path class="cls-2" d="M122.4,74.6h.67v-1.15h1.17v1.15h.91v.88h-.91v1.94c0,.15,0,.27.02.36.01.09.04.16.07.21.04.04.09.07.15.09.06.02.15.02.25.02.07,0,.14,0,.19,0,.06,0,.12-.01.19-.02v.87c-.11.01-.23.02-.36.03-.13,0-.26.01-.4.01-.28,0-.5-.03-.66-.08-.17-.06-.3-.14-.39-.24-.09-.1-.16-.23-.19-.39-.03-.16-.05-.34-.05-.55v-2.25h-.67v-.88Z"/>
          <path class="cls-2" d="M127.09,73.93h-1.17v-1.01h1.17v1.01ZM127.09,78.95h-1.17v-4.35h1.17v4.35Z"/>
          <path class="cls-2" d="M132.48,76.77c0,.36-.05.68-.16.96-.11.28-.26.52-.45.72-.19.19-.42.34-.7.45s-.58.16-.91.16-.65-.05-.92-.16c-.27-.1-.5-.26-.7-.45-.19-.2-.34-.44-.45-.72-.1-.28-.16-.6-.16-.96s.05-.67.16-.95c.1-.28.25-.52.45-.71s.43-.34.7-.44c.27-.1.58-.16.92-.16s.65.05.92.16c.27.1.5.25.69.44.19.19.34.43.45.71.1.28.16.6.16.95M131.31,76.77c0-.2-.02-.39-.07-.56-.04-.17-.11-.32-.19-.44-.09-.12-.19-.21-.33-.28-.13-.07-.28-.1-.46-.1-.34,0-.6.12-.78.37-.18.25-.27.59-.27,1.01s.09.77.26,1.02c.18.25.44.37.78.38.35,0,.61-.13.79-.38.17-.25.26-.59.26-1.02"/>
          <path class="cls-2" d="M134.58,74.6v.58h.02c.11-.22.29-.39.53-.51.24-.12.51-.18.79-.18.25,0,.47.04.67.11.2.07.37.18.51.32.14.14.25.31.32.5s.11.41.11.65v2.87h-1.17v-2.43c0-.18-.01-.34-.04-.48-.02-.15-.07-.26-.13-.36-.06-.09-.14-.17-.25-.22-.1-.05-.24-.08-.4-.08-.12,0-.23.02-.33.06-.11.04-.21.11-.3.21-.09.09-.17.22-.22.38-.05.15-.08.34-.08.56v2.36h-1.17v-4.35h1.15Z"/>
          <path class="cls-2" d="M146.02,78.95h-1.45l-.48-.57c-.18.21-.4.37-.67.49-.27.12-.58.17-.95.17-.26,0-.51-.03-.74-.1-.23-.07-.43-.17-.61-.31-.18-.14-.32-.31-.42-.52-.1-.21-.15-.45-.15-.72,0-.41.1-.76.31-1.03.21-.28.5-.5.87-.67-.21-.21-.36-.42-.45-.62-.09-.2-.14-.41-.14-.64,0-.26.05-.48.15-.66.1-.18.23-.33.39-.45.16-.11.34-.2.54-.25.2-.06.41-.08.61-.08s.41.02.61.07c.19.05.37.13.52.24.15.11.28.25.37.43.09.17.14.39.14.64,0,.35-.11.66-.32.91-.21.26-.5.47-.85.64l.8.89c.03-.06.07-.12.11-.2.04-.08.08-.16.12-.24.04-.08.08-.17.12-.26s.07-.18.1-.26h1.2c-.06.13-.12.27-.19.43-.07.16-.15.31-.23.47-.08.16-.16.31-.24.45-.09.15-.16.28-.24.39l1.19,1.38ZM142.32,76.34c-.2.09-.36.22-.47.37-.11.15-.17.33-.17.55,0,.25.08.45.24.6s.36.22.61.22c.21,0,.39-.04.54-.12.15-.08.27-.19.37-.33l-1.11-1.28ZM143.4,74.4c0-.18-.05-.32-.15-.42-.1-.11-.24-.16-.42-.16-.19,0-.33.06-.44.17-.11.11-.16.26-.16.44,0,.15.04.3.11.44.08.14.19.27.33.39.23-.09.4-.21.53-.34.13-.14.19-.31.19-.51"/>
          <path class="cls-2" d="M152.93,74.14c-.16-.06-.33-.11-.51-.15-.18-.04-.36-.06-.54-.06-.31,0-.59.06-.83.17-.24.11-.44.26-.59.45-.15.19-.27.41-.35.67-.08.26-.12.52-.12.81,0,.27.04.53.12.77.08.25.2.47.36.66.16.19.35.34.59.45.24.11.51.17.82.17.22,0,.42-.02.6-.06.18-.04.35-.09.51-.17l.21.93c-.21.09-.44.15-.69.19-.25.04-.51.06-.77.06-.44,0-.85-.07-1.21-.22-.36-.15-.67-.36-.93-.63-.26-.27-.46-.59-.59-.96-.14-.37-.21-.77-.21-1.22s.07-.85.2-1.23c.13-.37.33-.7.59-.97.25-.27.57-.48.94-.64.37-.15.79-.23,1.25-.23.26,0,.51.02.75.06.23.04.45.1.64.17l-.22.94Z"/>
          <path class="cls-2" d="M158.13,76.77c0,.36-.05.68-.16.96-.11.28-.26.52-.45.72-.19.19-.42.34-.7.45s-.58.16-.91.16-.65-.05-.92-.16-.5-.26-.7-.45c-.19-.2-.34-.44-.45-.72-.1-.28-.16-.6-.16-.96s.05-.67.16-.95c.1-.28.25-.52.45-.71s.42-.34.7-.44c.27-.1.58-.16.92-.16s.65.05.92.16c.27.1.5.25.69.44.19.19.34.43.45.71.1.28.16.6.16.95M156.96,76.77c0-.2-.02-.39-.07-.56-.04-.17-.11-.32-.19-.44-.09-.12-.19-.21-.33-.28-.13-.07-.28-.1-.46-.1-.34,0-.6.12-.78.37-.18.25-.27.59-.27,1.01s.09.77.26,1.02c.18.25.44.37.78.38.35,0,.61-.13.79-.38.17-.25.26-.59.26-1.02"/>
          <path class="cls-2" d="M160.23,74.6v.58h.02c.11-.22.29-.39.53-.51.25-.12.51-.18.79-.18.25,0,.47.04.67.11.2.07.37.18.51.32.14.14.25.31.32.5s.11.41.11.65v2.87h-1.17v-2.43c0-.18-.01-.34-.04-.48-.02-.15-.07-.26-.13-.36-.06-.09-.14-.17-.25-.22-.1-.05-.24-.08-.4-.08-.12,0-.23.02-.33.06-.11.04-.21.11-.3.21-.09.09-.17.22-.22.38-.05.15-.08.34-.08.56v2.36h-1.17v-4.35h1.15Z"/>
          <path class="cls-2" d="M163.8,74.6h.67v-1.15h1.17v1.15h.91v.88h-.91v1.94c0,.15,0,.27.02.36.01.09.04.16.07.21.03.04.09.07.15.09.06.02.15.02.25.02.07,0,.13,0,.19,0,.06,0,.12-.01.19-.02v.87c-.11.01-.23.02-.36.03-.13,0-.26.01-.4.01-.27,0-.5-.03-.66-.08-.17-.06-.3-.14-.39-.24-.09-.1-.16-.23-.19-.39-.03-.16-.05-.34-.05-.55v-2.25h-.67v-.88Z"/>
          <path class="cls-2" d="M169.88,75.42c-.05-.01-.11-.02-.16-.02-.06,0-.11,0-.17,0-.14,0-.28.03-.4.07-.13.05-.24.13-.34.25-.1.12-.18.27-.23.46-.05.19-.08.42-.08.69v2.1h-1.17v-4.35h1.15v.57h.02c.21-.44.59-.67,1.14-.67.06,0,.11,0,.17,0,.05,0,.11,0,.16.01l-.06.9Z"/>
          <path class="cls-2" d="M174.57,76.77c0,.36-.05.68-.16.96-.11.28-.26.52-.45.72-.19.19-.42.34-.7.45s-.58.16-.91.16-.65-.05-.92-.16c-.27-.1-.5-.26-.7-.45-.19-.2-.34-.44-.45-.72-.1-.28-.16-.6-.16-.96s.05-.67.16-.95c.1-.28.25-.52.45-.71s.43-.34.7-.44c.27-.1.58-.16.92-.16s.65.05.92.16c.27.1.5.25.69.44.19.19.34.43.45.71.1.28.16.6.16.95M173.41,76.77c0-.2-.02-.39-.07-.56-.04-.17-.11-.32-.19-.44-.09-.12-.19-.21-.33-.28-.13-.07-.28-.1-.46-.1-.34,0-.6.12-.78.37-.18.25-.27.59-.27,1.01s.09.77.26,1.02c.18.25.44.37.78.38.35,0,.61-.13.79-.38.17-.25.26-.59.26-1.02"/>
          <rect class="cls-2" x="175.53" y="72.89" width="1.17" height="6.06"/>
          <path class="cls-2" d="M185.38,76.02c0,.44-.06.84-.18,1.22-.12.37-.3.69-.53.96-.23.27-.52.48-.87.63-.34.15-.74.23-1.18.23s-.84-.08-1.18-.23c-.34-.15-.63-.36-.86-.63-.23-.27-.41-.59-.53-.96s-.18-.78-.18-1.22.06-.85.18-1.22c.12-.37.3-.69.53-.96.23-.27.52-.48.87-.64.35-.15.74-.23,1.18-.23s.84.08,1.19.23c.35.15.64.36.87.64.23.27.41.59.53.96.12.37.18.78.18,1.22M184.17,76.02c0-.29-.03-.56-.1-.81-.06-.25-.16-.48-.28-.66-.12-.19-.28-.33-.48-.44-.2-.11-.43-.16-.7-.16s-.49.05-.7.16c-.2.11-.36.26-.49.44-.12.19-.22.41-.28.66-.06.26-.1.53-.1.81s.03.55.1.81c.06.25.16.47.29.66.13.19.29.33.49.44.19.11.43.16.7.16s.5-.05.7-.16c.19-.11.36-.25.48-.44.13-.19.22-.41.28-.66.06-.25.09-.52.09-.81"/>
          <path class="cls-2" d="M188.87,73.83c-.08-.02-.17-.04-.26-.04-.09,0-.17,0-.24,0-.22,0-.38.05-.48.14-.1.1-.15.25-.15.47v.21h.91v.88h-.91v3.47h-1.17v-3.47h-.7v-.88h.7v-.29c0-.21.03-.4.08-.57.06-.17.15-.32.28-.45.13-.13.3-.22.51-.29.21-.07.47-.1.78-.1.12,0,.24,0,.37.02.13.01.25.03.36.05l-.08.86Z"/>
          <path class="cls-2" d="M191.49,73.07h2.21c.29,0,.56.03.82.09.26.06.49.16.68.31.19.14.35.33.46.56.11.23.17.52.17.86s-.06.64-.17.89c-.11.24-.27.44-.46.59-.2.15-.42.26-.68.33-.25.07-.53.1-.81.1h-1.01v2.15h-1.2v-5.88ZM192.69,75.83h.88c.14,0,.28,0,.42-.05s.25-.09.34-.16c.09-.07.16-.16.21-.27.05-.11.08-.25.08-.42,0-.34-.11-.58-.3-.71-.2-.13-.46-.2-.8-.19h-.82v1.8Z"/>
          <rect class="cls-2" x="196.67" y="72.89" width="1.17" height="6.06"/>
          <path class="cls-2" d="M201.49,76.11c0-.23-.08-.41-.24-.53-.16-.13-.4-.19-.73-.19-.16,0-.33.02-.52.05-.19.03-.39.09-.6.16l-.21-.84c.19-.07.42-.13.69-.18.27-.05.51-.07.73-.07.71,0,1.24.15,1.57.44.33.29.49.7.48,1.23v1.8c0,.16,0,.33.01.52,0,.18.02.34.05.47h-1.04c-.02-.07-.04-.16-.06-.27-.02-.11-.03-.2-.03-.27h-.02c-.11.19-.27.35-.49.46-.22.12-.48.17-.77.17-.19,0-.38-.02-.57-.07-.19-.05-.36-.12-.51-.23-.15-.11-.27-.25-.36-.42-.09-.17-.13-.38-.14-.63,0-.31.07-.57.21-.77.14-.2.34-.35.59-.45.25-.1.55-.17.89-.21.34-.04.69-.05,1.05-.05v-.11ZM201.33,76.94c-.2,0-.38.01-.56.03-.18.02-.33.06-.47.11-.13.05-.24.12-.31.22-.07.09-.11.21-.11.35,0,.19.06.33.17.44.11.1.27.16.47.16.17,0,.31-.03.43-.08.12-.06.23-.13.3-.23.08-.1.14-.21.17-.32.03-.11.05-.24.05-.36v-.31h-.16Z"/>
          <path class="cls-2" d="M204.94,74.6v.58h.02c.11-.22.29-.39.53-.51.24-.12.51-.18.79-.18.25,0,.47.04.67.11.2.07.37.18.51.32.14.14.25.31.32.5s.11.41.11.65v2.87h-1.17v-2.43c0-.18-.01-.34-.04-.48-.02-.15-.07-.26-.13-.36-.06-.09-.14-.17-.25-.22-.1-.05-.24-.08-.4-.08-.12,0-.23.02-.33.06-.11.04-.21.11-.3.21-.09.09-.17.22-.22.38-.05.15-.08.34-.08.56v2.36h-1.17v-4.35h1.15Z"/>
          <path class="cls-2" d="M208.51,74.6h.67v-1.15h1.17v1.15h.91v.88h-.91v1.94c0,.15,0,.27.02.36.01.09.04.16.07.21.03.04.09.07.15.09.06.02.15.02.25.02.07,0,.13,0,.19,0,.06,0,.12-.01.19-.02v.87c-.11.01-.23.02-.36.03-.13,0-.26.01-.4.01-.27,0-.5-.03-.66-.08-.17-.06-.3-.14-.39-.24-.09-.1-.16-.23-.19-.39-.03-.16-.05-.34-.05-.55v-2.25h-.67v-.88Z"/>
          <path class="cls-2" d="M214.7,75.61c-.23-.09-.43-.15-.63-.18-.19-.03-.38-.05-.56-.05s-.31.03-.41.08c-.1.05-.16.15-.16.28,0,.13.06.23.17.31.11.08.32.17.64.26.23.07.44.15.61.24.18.08.33.18.46.3.13.11.22.24.28.38.06.14.09.31.09.5,0,.25-.05.46-.16.63-.11.17-.25.31-.42.41-.17.1-.36.18-.58.22-.22.05-.43.07-.65.07-.27,0-.55-.03-.84-.08-.29-.06-.56-.13-.79-.22l.23-.89c.24.1.49.18.75.24.25.05.47.08.65.08.22,0,.4-.03.52-.09.12-.06.18-.16.18-.3,0-.13-.07-.23-.2-.32-.13-.09-.37-.18-.71-.28-.47-.15-.81-.34-1.02-.54-.21-.21-.32-.47-.32-.78,0-.24.06-.44.15-.61.09-.17.22-.31.38-.42.16-.11.35-.19.55-.24.2-.05.41-.08.62-.08.23,0,.47.02.72.06.25.04.49.1.7.18l-.26.86Z"/>
          <path class="cls-2" d="M218.29,73.07h2.21c.29,0,.56.03.82.09.26.06.49.16.68.31.19.14.35.33.46.56.11.23.17.52.17.86s-.06.64-.17.89c-.11.24-.27.44-.46.59-.2.15-.42.26-.68.33-.25.07-.53.1-.81.1h-1.01v2.15h-1.2v-5.88ZM219.49,75.83h.88c.14,0,.28,0,.42-.05s.25-.09.34-.16c.09-.07.16-.16.21-.27.05-.11.08-.25.08-.42,0-.34-.11-.58-.3-.71-.2-.13-.46-.2-.8-.19h-.82v1.8Z"/>
          <path class="cls-2" d="M224.18,77.12c.02.2.07.36.15.49.08.13.18.24.31.32.13.08.27.15.44.19.17.04.35.06.53.06.17,0,.34-.01.52-.04.18-.02.36-.06.52-.12l.13.86c-.19.06-.39.1-.61.13-.21.03-.45.05-.7.05-.39,0-.74-.06-1.04-.17-.31-.11-.56-.26-.77-.46-.21-.2-.37-.44-.48-.72-.11-.28-.16-.58-.16-.92s.05-.64.15-.92c.1-.28.25-.52.43-.73.19-.2.41-.36.69-.47.27-.11.58-.17.91-.17s.6.05.84.15c.24.1.45.25.61.43.16.19.29.41.38.68.08.26.13.56.13.89v.47h-2.98ZM225.18,75.29c-.27,0-.5.09-.68.28-.18.19-.29.43-.32.73h1.89c0-.3-.07-.55-.23-.73-.16-.19-.38-.28-.65-.28"/>
          <path class="cls-2" d="M230.75,75.61c-.23-.09-.43-.15-.63-.18-.19-.03-.38-.05-.56-.05s-.31.03-.41.08c-.1.05-.16.15-.16.28,0,.13.06.23.17.31.11.08.32.17.64.26.23.07.43.15.61.24.18.08.33.18.46.3.13.11.22.24.28.38.06.14.1.31.1.5,0,.25-.05.46-.16.63-.11.17-.25.31-.42.41-.17.1-.36.18-.58.22-.22.05-.43.07-.65.07-.27,0-.55-.03-.85-.08-.29-.06-.56-.13-.79-.22l.23-.89c.24.1.49.18.75.24.25.05.47.08.65.08.22,0,.4-.03.52-.09.12-.06.18-.16.18-.3,0-.13-.07-.23-.2-.32-.13-.09-.37-.18-.71-.28-.47-.15-.81-.34-1.02-.54-.21-.21-.32-.47-.32-.78,0-.24.06-.44.15-.61.09-.17.22-.31.38-.42.16-.11.35-.19.55-.24.2-.05.41-.08.62-.08.23,0,.47.02.72.06.25.04.49.1.7.18l-.26.86Z"/>
          <path class="cls-2" d="M231.64,74.6h.67v-1.15h1.17v1.15h.91v.88h-.91v1.94c0,.15,0,.27.02.36.01.09.04.16.07.21.03.04.09.07.15.09.06.02.15.02.25.02.07,0,.13,0,.19,0,.06,0,.12-.01.19-.02v.87c-.11.01-.23.02-.36.03-.13,0-.26.01-.4.01-.27,0-.5-.03-.66-.08-.17-.06-.3-.14-.39-.24-.09-.1-.16-.23-.19-.39-.03-.16-.05-.34-.05-.55v-2.25h-.67v-.88Z"/>
          <path class="cls-2" d="M237.83,75.61c-.23-.09-.43-.15-.63-.18-.19-.03-.38-.05-.56-.05s-.31.03-.41.08c-.1.05-.16.15-.16.28,0,.13.06.23.17.31.11.08.32.17.64.26.23.07.44.15.61.24.18.08.33.18.46.3.13.11.22.24.28.38.06.14.09.31.09.5,0,.25-.05.46-.16.63-.11.17-.25.31-.42.41-.17.1-.36.18-.58.22-.22.05-.43.07-.65.07-.27,0-.55-.03-.85-.08-.29-.06-.56-.13-.79-.22l.23-.89c.24.1.49.18.75.24.25.05.47.08.65.08.22,0,.4-.03.52-.09.12-.06.18-.16.18-.3,0-.13-.07-.23-.2-.32-.14-.09-.37-.18-.71-.28-.47-.15-.81-.34-1.02-.54-.21-.21-.32-.47-.32-.78,0-.24.06-.44.15-.61.09-.17.22-.31.38-.42.16-.11.35-.19.55-.24.2-.05.41-.08.62-.08.23,0,.47.02.72.06.25.04.49.1.7.18l-.26.86Z"/>
          <path class="cls-2" d="M246.6,78.95h-1.45l-.48-.57c-.18.21-.4.37-.67.49-.27.12-.58.17-.95.17-.26,0-.51-.03-.74-.1-.23-.07-.44-.17-.61-.31-.18-.14-.32-.31-.42-.52-.1-.21-.15-.45-.15-.72,0-.41.1-.76.31-1.03.21-.28.5-.5.87-.67-.21-.21-.36-.42-.45-.62-.09-.2-.14-.41-.14-.64,0-.26.05-.48.15-.66.1-.18.23-.33.39-.45.16-.11.34-.2.54-.25.2-.06.41-.08.61-.08s.41.02.6.07c.19.05.37.13.52.24.15.11.28.25.37.43.09.17.14.39.14.64,0,.35-.11.66-.32.91-.21.26-.5.47-.85.64l.8.89c.03-.06.07-.12.11-.2.04-.08.08-.16.12-.24.04-.08.08-.17.12-.26.04-.09.07-.18.1-.26h1.2c-.06.13-.12.27-.19.43-.07.16-.15.31-.23.47-.08.16-.16.31-.24.45-.09.15-.16.28-.24.39l1.19,1.38ZM242.9,76.34c-.2.09-.36.22-.48.37-.11.15-.17.33-.17.55,0,.25.08.45.24.6.16.15.36.22.61.22.21,0,.39-.04.54-.12.15-.08.27-.19.37-.33l-1.11-1.28ZM243.98,74.4c0-.18-.05-.32-.15-.42-.1-.11-.24-.16-.41-.16-.19,0-.33.06-.44.17-.11.11-.16.26-.16.44,0,.15.04.3.11.44.08.14.19.27.33.39.23-.09.4-.21.53-.34.13-.14.19-.31.19-.51"/>
          <path class="cls-2" d="M250.23,78.95h-1.28l2.12-5.88h1.65l2.11,5.88h-1.29l-.53-1.43h-2.27l-.51,1.43ZM251.02,76.54h1.71l-.85-2.54-.86,2.54Z"/>
          <path class="cls-2" d="M256.57,74.6v.58h.02c.11-.22.29-.39.53-.51.24-.12.51-.18.79-.18.25,0,.47.04.67.11.2.07.37.18.51.32.14.14.25.31.32.5.07.19.11.41.11.65v2.87h-1.17v-2.43c0-.18-.01-.34-.04-.48-.02-.15-.07-.26-.13-.36-.06-.09-.14-.17-.25-.22-.1-.05-.24-.08-.4-.08-.11,0-.23.02-.33.06-.11.04-.21.11-.3.21-.09.09-.17.22-.22.38-.05.15-.08.34-.08.56v2.36h-1.17v-4.35h1.15Z"/>
          <path class="cls-2" d="M261.8,73.93h-1.17v-1.01h1.17v1.01ZM261.8,78.95h-1.17v-4.35h1.17v4.35Z"/>
          <path class="cls-2" d="M264.1,74.6v.59h.02c.11-.22.28-.39.5-.51.23-.12.47-.18.75-.18.31,0,.58.06.79.18.22.12.38.3.48.53h.02c.15-.25.34-.43.58-.54.24-.11.5-.17.77-.17.3,0,.54.05.73.12.19.07.36.18.49.31.13.13.23.3.3.49.07.2.1.41.1.66v2.87h-1.17v-2.43c0-.18,0-.34-.02-.47-.02-.14-.05-.26-.1-.36-.05-.1-.13-.17-.23-.23-.1-.05-.23-.08-.38-.08-.1,0-.2.02-.3.05-.1.03-.19.08-.27.16-.08.07-.14.17-.19.29-.05.12-.08.27-.08.44v2.64h-1.17v-2.45c0-.18,0-.33-.02-.47-.02-.14-.05-.25-.1-.35-.05-.1-.13-.17-.23-.22-.1-.05-.23-.08-.39-.08-.11,0-.22.02-.32.07-.1.04-.2.11-.28.21-.08.1-.14.22-.19.37-.05.15-.07.33-.07.55v2.37h-1.17v-4.35h1.14Z"/>
          <path class="cls-2" d="M273.24,76.11c0-.23-.08-.41-.24-.53-.16-.13-.4-.19-.73-.19-.16,0-.33.02-.52.05-.19.03-.39.09-.6.16l-.21-.84c.19-.07.42-.13.68-.18.27-.05.51-.07.73-.07.71,0,1.24.15,1.57.44.33.29.49.7.48,1.23v1.8c0,.16,0,.33.01.52s.03.34.05.47h-1.04c-.02-.07-.04-.16-.06-.27-.02-.11-.03-.2-.03-.27h-.02c-.11.19-.27.35-.49.46-.22.12-.47.17-.77.17-.19,0-.38-.02-.57-.07-.19-.05-.36-.12-.51-.23-.15-.11-.27-.25-.36-.42-.09-.17-.13-.38-.14-.63,0-.31.07-.57.21-.77.14-.2.34-.35.59-.45.25-.1.55-.17.89-.21.34-.04.69-.05,1.05-.05v-.11ZM273.08,76.94c-.2,0-.38.01-.56.03-.18.02-.33.06-.47.11-.13.05-.24.12-.31.22-.07.09-.11.21-.11.35,0,.19.06.33.17.44.12.1.27.16.47.16.17,0,.31-.03.43-.08.12-.06.22-.13.3-.23.08-.1.14-.21.17-.32.04-.11.05-.24.05-.36v-.31h-.16Z"/>
          <rect class="cls-2" x="275.55" y="72.89" width="1.17" height="6.06"/>
          <path class="cls-2" d="M280.08,73.07h2c.48,0,.91.07,1.28.2.37.14.68.33.93.58s.44.56.56.92c.13.36.19.77.19,1.22s-.07.88-.19,1.24c-.13.37-.32.68-.57.93-.25.25-.56.45-.93.59-.37.14-.79.21-1.28.21h-2v-5.88ZM281.28,77.99h.63c.33,0,.62-.05.86-.14.25-.09.45-.23.61-.4.16-.18.27-.38.35-.62.08-.24.12-.51.12-.82s-.04-.57-.12-.81c-.08-.24-.19-.45-.35-.62-.15-.17-.36-.31-.61-.4-.25-.09-.54-.14-.86-.14h-.63v3.95Z"/>
          <path class="cls-2" d="M287.22,73.93h-1.17v-1.01h1.17v1.01ZM287.22,78.95h-1.17v-4.35h1.17v4.35Z"/>
          <path class="cls-2" d="M291.04,75.61c-.23-.09-.43-.15-.63-.18-.2-.03-.38-.05-.56-.05s-.31.03-.41.08c-.1.05-.16.15-.16.28,0,.13.06.23.17.31.11.08.32.17.64.26.23.07.44.15.61.24.18.08.33.18.46.3.13.11.22.24.28.38.06.14.1.31.1.5,0,.25-.05.46-.16.63-.11.17-.24.31-.42.41-.17.1-.36.18-.58.22-.22.05-.43.07-.64.07-.27,0-.55-.03-.85-.08-.29-.06-.56-.13-.79-.22l.23-.89c.24.1.49.18.75.24.26.05.47.08.65.08.23,0,.4-.03.52-.09.12-.06.18-.16.18-.3,0-.13-.07-.23-.2-.32-.14-.09-.37-.18-.71-.28-.47-.15-.81-.34-1.02-.54-.21-.21-.32-.47-.32-.78,0-.24.05-.44.15-.61.09-.17.22-.31.38-.42.16-.11.35-.19.55-.24s.41-.08.62-.08c.23,0,.47.02.72.06.25.04.49.1.7.18l-.26.86Z"/>
          <path class="cls-2" d="M293.38,77.12c.02.2.07.36.15.49.08.13.18.24.31.32.13.08.27.15.44.19.17.04.35.06.53.06.17,0,.34-.01.52-.04.18-.02.36-.06.52-.12l.13.86c-.19.06-.39.1-.61.13-.21.03-.45.05-.7.05-.39,0-.74-.06-1.04-.17-.3-.11-.56-.26-.77-.46-.21-.2-.37-.44-.48-.72-.11-.28-.16-.58-.16-.92s.05-.64.15-.92c.1-.28.24-.52.43-.73.19-.2.42-.36.69-.47.27-.11.58-.17.91-.17.32,0,.6.05.84.15.24.1.45.25.61.43.17.19.29.41.38.68.08.26.13.56.13.89v.47h-2.98ZM294.39,75.29c-.27,0-.5.09-.68.28-.18.19-.29.43-.32.73h1.89c0-.3-.07-.55-.23-.73-.16-.19-.38-.28-.65-.28"/>
          <path class="cls-2" d="M299.7,76.11c0-.23-.08-.41-.24-.53-.16-.13-.4-.19-.73-.19-.16,0-.33.02-.52.05-.19.03-.39.09-.6.16l-.21-.84c.19-.07.42-.13.68-.18.27-.05.51-.07.73-.07.71,0,1.24.15,1.57.44.33.29.49.7.48,1.23v1.8c0,.16,0,.33.01.52s.03.34.05.47h-1.04c-.02-.07-.04-.16-.06-.27-.02-.11-.03-.2-.03-.27h-.02c-.11.19-.27.35-.49.46-.22.12-.47.17-.77.17-.19,0-.38-.02-.57-.07-.19-.05-.36-.12-.51-.23-.15-.11-.27-.25-.36-.42-.09-.17-.13-.38-.14-.63,0-.31.07-.57.21-.77.14-.2.34-.35.59-.45.25-.1.55-.17.89-.21.34-.04.69-.05,1.05-.05v-.11ZM299.55,76.94c-.2,0-.38.01-.56.03-.18.02-.33.06-.47.11-.13.05-.24.12-.31.22-.07.09-.11.21-.11.35,0,.19.06.33.17.44.12.1.27.16.47.16.17,0,.31-.03.43-.08.12-.06.22-.13.3-.23.08-.1.14-.21.17-.32.04-.11.05-.24.05-.36v-.31h-.16Z"/>
          <path class="cls-2" d="M304.68,75.61c-.23-.09-.43-.15-.63-.18-.2-.03-.38-.05-.56-.05s-.31.03-.41.08c-.1.05-.16.15-.16.28,0,.13.06.23.17.31.11.08.32.17.64.26.23.07.44.15.61.24.18.08.33.18.46.3.13.11.22.24.28.38.06.14.1.31.1.5,0,.25-.05.46-.16.63-.11.17-.24.31-.42.41-.17.1-.36.18-.58.22-.22.05-.43.07-.64.07-.27,0-.55-.03-.85-.08-.29-.06-.56-.13-.79-.22l.23-.89c.24.1.49.18.75.24.26.05.47.08.65.08.23,0,.4-.03.52-.09.12-.06.18-.16.18-.3,0-.13-.07-.23-.2-.32-.14-.09-.37-.18-.71-.28-.47-.15-.81-.34-1.02-.54-.21-.21-.32-.47-.32-.78,0-.24.05-.44.15-.61.09-.17.22-.31.38-.42.16-.11.35-.19.55-.24s.41-.08.62-.08c.23,0,.47.02.72.06.25.04.49.1.7.18l-.26.86Z"/>
          <path class="cls-2" d="M307.02,77.12c.02.2.07.36.15.49.08.13.18.24.31.32.13.08.27.15.44.19.17.04.35.06.53.06.17,0,.34-.01.52-.04.18-.02.36-.06.52-.12l.13.86c-.19.06-.39.1-.61.13-.21.03-.45.05-.7.05-.39,0-.74-.06-1.04-.17-.3-.11-.56-.26-.77-.46-.21-.2-.37-.44-.48-.72-.11-.28-.16-.58-.16-.92s.05-.64.15-.92c.1-.28.25-.52.43-.73.19-.2.42-.36.69-.47.27-.11.58-.17.91-.17.32,0,.6.05.84.15.24.1.45.25.61.43.17.19.29.41.38.68.08.26.13.56.13.89v.47h-2.98ZM308.02,75.29c-.27,0-.5.09-.68.28-.18.19-.29.43-.32.73h1.89c0-.3-.07-.55-.23-.73-.16-.19-.38-.28-.65-.28"/>
          <path class="cls-2" d="M313.59,75.61c-.23-.09-.43-.15-.63-.18-.2-.03-.38-.05-.56-.05s-.31.03-.41.08c-.1.05-.16.15-.16.28,0,.13.06.23.17.31.11.08.32.17.64.26.23.07.44.15.61.24.18.08.33.18.46.3.13.11.22.24.29.38.06.14.09.31.09.5,0,.25-.05.46-.16.63-.11.17-.24.31-.42.41-.17.1-.36.18-.58.22-.22.05-.43.07-.64.07-.27,0-.55-.03-.85-.08-.29-.06-.56-.13-.79-.22l.23-.89c.24.1.49.18.75.24.26.05.47.08.65.08.23,0,.4-.03.52-.09.12-.06.18-.16.18-.3,0-.13-.07-.23-.2-.32-.14-.09-.37-.18-.71-.28-.47-.15-.81-.34-1.02-.54-.21-.21-.32-.47-.32-.78,0-.24.05-.44.15-.61.09-.17.22-.31.38-.42.16-.11.35-.19.55-.24s.41-.08.62-.08c.23,0,.47.02.72.06.25.04.49.1.7.18l-.26.86Z"/>
          <path class="cls-4" d="M211.63,35.58c-.44-.14-.79-.34-1.07-.59-.28-.25-.48-.53-.59-.84-.11-.3-.17-.62-.17-.96,0-.68.24-1.22.71-1.62.47-.4,1.05-.6,1.73-.6.46,0,.87.04,1.26.12.38.08.67.14.87.2l.63-2.67c-.4-.16-.9-.28-1.49-.37-.59-.09-1.14-.13-1.65-.13-.91,0-1.71.13-2.4.38-.69.25-1.27.61-1.73,1.06-.46.45-.8.97-1.02,1.56-.22.58-.33,1.21-.33,1.87,0,.61.09,1.16.28,1.65.18.49.39.87.62,1.15h-1.83v2.94h10.09v-2.94h-2.23c-.66,0-1.21-.07-1.65-.21"/>
          <path class="cls-4" d="M233.44,24.46c.54,0,.98-.17,1.32-.52.34-.35.51-.8.51-1.36s-.17-.99-.51-1.34c-.34-.35-.78-.52-1.32-.52s-1.01.17-1.36.52c-.35.35-.52.79-.52,1.34s.17,1.01.52,1.36c.35.35.8.52,1.36.52"/>
          <path class="cls-4" d="M238.08,24.46c.54,0,.98-.17,1.32-.52.34-.35.51-.8.51-1.36s-.17-.99-.51-1.34c-.34-.35-.78-.52-1.32-.52s-1.01.17-1.36.52c-.35.35-.52.79-.52,1.34s.17,1.01.52,1.36c.35.35.8.52,1.36.52"/>
          <path class="cls-4" d="M239.95,28.12c-.55-.46-1.2-.8-1.94-1.01-.74-.21-1.53-.32-2.37-.32-.89,0-1.72.12-2.48.37-.76.24-1.41.61-1.96,1.1-.55.49-.98,1.1-1.29,1.82-.31.72-.46,1.57-.46,2.53,0,.63.09,1.24.26,1.85.17.6.38,1.04.63,1.32h-6.16s-.04,0-.06,0c-.02,0-.03,0-.05,0-.28,0-.55-.03-.81-.09-.26-.06-.5-.17-.72-.34-.22-.17-.39-.4-.5-.71-.11-.31-.17-.67-.17-1.09v-14.1h-3.59v15.25c0,.77.17,1.42.5,1.95.33.53.8.95,1.4,1.26.6.31,1.28.51,2.03.63.75.11,1.53.17,2.33.17,0,0,0,0,.01,0,.03,0,.06,0,.09,0h11.38c1.07,0,1.97-.13,2.7-.38.73-.25,1.32-.64,1.77-1.15.45-.51.76-1.15.96-1.91.19-.76.29-1.64.29-2.63,0-1.05-.16-1.95-.49-2.7-.32-.75-.76-1.36-1.31-1.82M237.49,35c-.41.52-1.04.79-1.87.79s-1.51-.26-1.9-.79c-.39-.52-.59-1.35-.59-2.46,0-.58.08-1.06.25-1.44.17-.38.37-.68.62-.9.24-.22.52-.37.81-.46.3-.09.58-.13.84-.13.31,0,.62.04.92.13.3.09.56.24.79.47.23.23.41.54.55.93.14.39.21.9.21,1.51,0,1.05-.21,1.83-.62,2.36"/>
          <path class="cls-4" d="M255.06,28.24c-.54-.47-1.16-.83-1.86-1.07-.7-.24-1.44-.37-2.23-.37-1.07,0-2,.18-2.79.54-.8.36-1.45.83-1.97,1.43-.52.6-.9,1.28-1.15,2.04-.25.77-.38,1.56-.38,2.39,0,.94.15,1.76.45,2.46.3.7.71,1.28,1.23,1.73.52.46,1.15.79,1.89,1.01.74.22,1.54.33,2.41.33.51,0,.96-.03,1.36-.09.4-.06.79-.16,1.15-.3,0,.7-.27,1.23-.8,1.59-.53.36-1.36.54-2.48.54-.54,0-1.03-.04-1.47-.1-.44-.07-.85-.15-1.26-.24l-.52,2.78c.51.12,1.06.22,1.66.3.6.08,1.17.12,1.69.12,1.03,0,1.97-.1,2.8-.29.84-.19,1.55-.51,2.15-.96.59-.44,1.05-1.03,1.38-1.76.32-.72.49-1.61.49-2.66v-5.14c0-.94-.16-1.77-.47-2.49-.32-.72-.74-1.31-1.28-1.78M253.2,35.47c-.24.09-.53.16-.87.22-.33.06-.72.09-1.18.09-.89,0-1.58-.24-2.06-.72-.48-.48-.72-1.22-.72-2.21,0-.54.07-1.01.22-1.4.15-.39.34-.71.58-.96.24-.24.51-.42.83-.54.31-.11.63-.17.94-.17.4,0,.75.08,1.05.25.3.17.53.39.71.67.17.28.3.59.38.94.08.35.12.72.12,1.13v2.7Z"/>
          <path class="cls-4" d="M270.27,24.46c.54,0,.98-.17,1.32-.52.34-.35.51-.8.51-1.36s-.17-.99-.51-1.34c-.34-.35-.78-.52-1.32-.52s-.99.17-1.35.52-.54.79-.54,1.34.17.99.52,1.35c.35.36.8.54,1.36.54"/>
          <path class="cls-4" d="M286.83,28.44c-.48-.45-1.1-.79-1.85-1.05-.75-.25-1.64-.38-2.67-.38h-2.1l5.08-5.29-2.44-2.25-7.13,7.55v2.94h5.69c2.15,0,3.22.91,3.22,2.73v.68c0,.86-.19,1.48-.56,1.86-.38.38-1.02.58-1.93.58h-7.7c-.05,0-.09.01-.14.02-.04,0-.09-.02-.14-.02h-2.2v-8.78h-3.59v10.85c0,.86-.14,1.48-.43,1.86-.29.39-.76.58-1.43.58-.19,0-.39-.01-.58-.04-.19-.03-.39-.06-.6-.09l-.44,2.8c.28.09.64.17,1.07.24.44.07.92.1,1.44.1.56,0,1.11-.06,1.64-.18.53-.12,1.01-.35,1.44-.69.43-.34.77-.81,1.03-1.4.26-.59.41-1.36.45-2.31h2.67s.04,0,.06-.01c.07,0,.14.01.22.01h8.62c1.7,0,2.9-.38,3.62-1.15.72-.77,1.07-2.03,1.07-3.8v-1.73c0-.72-.11-1.38-.34-2-.23-.62-.58-1.15-1.06-1.6"/>
          <path class="cls-4" d="M312.21,30.39c-.27-.75-.66-1.39-1.18-1.91-.52-.53-1.16-.93-1.93-1.23-.77-.3-1.65-.44-2.65-.44-.87,0-1.67.16-2.4.47-.73.31-1.35.76-1.86,1.34-.52.58-.93,1.27-1.23,2.07s-.49,1.69-.56,2.65c-.05.4-.11.75-.17,1.03-.06.29-.15.54-.26.75-.12.21-.27.38-.47.5-.2.12-.47.18-.8.18h-2.88v-8.78h-3.59v10.85c0,.86-.14,1.48-.43,1.86-.29.38-.76.58-1.43.58-.19,0-.38-.01-.58-.04-.19-.03-.39-.06-.6-.09l-.45,2.8c.28.09.64.17,1.08.24.44.07.92.1,1.44.1.56,0,1.11-.06,1.64-.18.53-.12,1.01-.35,1.44-.69.43-.34.77-.81,1.04-1.4.26-.59.41-1.36.45-2.31h3.51c.82,0,1.47-.09,1.94-.29.47-.19.93-.56,1.36-1.1.75.59,1.45.99,2.1,1.19.65.2,1.36.3,2.15.3.7,0,1.39-.1,2.07-.31.68-.21,1.3-.55,1.86-1.02.56-.47,1-1.1,1.32-1.89.32-.79.48-1.71.48-2.78,0-.87-.14-1.69-.41-2.44M308.38,35.05c-.44.51-1.02.76-1.76.76-.51,0-.98-.1-1.43-.29-.45-.19-.95-.54-1.51-1.05.05-.66.14-1.27.28-1.81.13-.54.31-1.03.55-1.45.24-.43.52-.77.86-1.02.34-.25.75-.38,1.22-.38.75,0,1.35.28,1.78.85.44.57.65,1.37.65,2.4,0,.82-.22,1.49-.65,1.99"/>
          <path class="cls-5" d="M383.39,0c-26.26,0-47.63,21.37-47.63,47.63s21.37,47.63,47.63,47.63,47.63-21.37,47.63-47.63S409.65,0,383.39,0M383.39,93.14c-25.09,0-45.51-20.42-45.51-45.51S358.3,2.12,383.39,2.12s45.51,20.42,45.51,45.51-20.42,45.51-45.51,45.51"/>
          <rect class="cls-4" x="186.27" y="19.39" width="2.02" height="20.92"/>
          <path class="cls-2" d="M4.89,63.53c0,.2,0,.35-.02.44-.01.09-.03.14-.05.14-.32,0-.64-.02-.94-.07-.3-.05-.58-.13-.82-.25-.24-.12-.43-.29-.57-.51-.13-.22-.2-.48-.2-.79v-6.16h1.45v5.69c0,.17.02.32.07.44.05.12.11.22.2.29.09.07.18.11.29.14.11.03.22.04.33.04.09,0,.16.05.2.15.04.1.06.25.06.45"/>
          <path class="cls-2" d="M4.82,64.11c-.15,0-.29-.04-.39-.13-.11-.08-.16-.23-.16-.43,0-.15.02-.29.07-.42.05-.13.15-.2.29-.2h.92v-1.1c0-.34.04-.66.13-.96.09-.3.23-.57.42-.81.19-.24.45-.43.76-.56.31-.13.67-.2,1.08-.2.37,0,.71.06,1,.19.29.13.53.3.73.52.19.22.33.47.42.74.09.28.14.56.14.86s-.03.57-.08.79c-.05.23-.11.4-.16.53h.78c.2,0,.31.21.31.64,0,.14,0,.27-.03.38-.02.11-.05.17-.09.17h-1.09c.11.13.18.27.23.44.05.17.07.36.07.56,0,.27-.06.51-.17.72-.12.2-.28.38-.49.51-.21.14-.45.24-.73.31-.28.07-.59.1-.93.1-.75,0-1.32-.17-1.71-.51-.39-.34-.59-.84-.59-1.5v-.63h-.73ZM7.75,62.93c.34,0,.61-.11.79-.33.18-.22.28-.54.28-.95,0-.14-.02-.27-.05-.4-.03-.13-.08-.26-.16-.37-.07-.11-.17-.2-.28-.26-.11-.07-.25-.1-.4-.1-.17,0-.32.03-.43.1-.12.07-.22.16-.3.28-.08.12-.13.25-.17.41-.03.16-.05.32-.05.49v1.13h.77ZM8.79,64.93c0-.08-.02-.18-.06-.27-.04-.1-.1-.19-.2-.27-.09-.08-.21-.15-.35-.19-.14-.05-.31-.07-.5-.07h-.71v.49c0,.11.01.21.04.33.03.11.08.21.15.3.07.09.17.16.3.22.13.06.29.09.5.09.18,0,.33-.02.44-.07.11-.05.19-.1.25-.17.06-.07.09-.13.11-.2.02-.07.03-.12.03-.17"/>
          <path class="cls-2" d="M13.37,63.36c-.23.3-.57.51-1.03.64-.23.06-.44.09-.65.1-.21.01-.45.02-.74.02-.18,0-.31-.05-.41-.14-.1-.09-.14-.23-.14-.42,0-.2.03-.36.1-.47.06-.1.15-.16.26-.16.29,0,.52,0,.68-.02.17-.01.32-.06.45-.14.08-.05.15-.12.21-.2.06-.08.1-.18.13-.28.03-.1.05-.2.06-.31.01-.11.02-.21.02-.3v-2.31h1.44v2.53c0,.3.11.55.32.74.21.19.5.28.87.28.11,0,.18.05.23.14.05.09.07.24.07.44,0,.25,0,.41-.02.49-.01.08-.05.12-.09.12-.13,0-.28-.01-.45-.04-.16-.03-.33-.07-.5-.13-.17-.06-.32-.14-.47-.23-.15-.09-.26-.21-.35-.34M11.32,57.6c0-.22.07-.4.21-.54.14-.14.32-.21.55-.21s.4.07.53.21c.14.14.21.32.21.54s-.07.41-.21.55c-.14.14-.32.21-.53.21s-.41-.07-.55-.21c-.14-.14-.21-.32-.21-.55M13.19,57.6c0-.22.07-.4.21-.54.14-.14.32-.21.55-.21s.4.07.54.21c.14.14.21.32.21.54s-.07.41-.21.55c-.14.14-.32.21-.54.21s-.41-.07-.55-.21c-.14-.14-.21-.32-.21-.55"/>
          <path class="cls-2" d="M15.13,64.11c-.15,0-.29-.04-.39-.13-.11-.08-.16-.23-.16-.43,0-.15.03-.29.07-.42.05-.13.14-.2.29-.2h2.18c.28,0,.5-.03.67-.08s.3-.14.39-.24c.08-.1.14-.22.17-.35.03-.13.04-.28.04-.46,0-.42-.14-.74-.41-.96s-.69-.33-1.26-.33c-.14,0-.32.01-.52.04s-.42.08-.63.15l-.31-1.08c.32-.12.63-.2.93-.25.3-.05.56-.07.78-.07.51,0,.96.06,1.33.19.37.13.67.31.91.54.24.24.41.51.51.82.1.31.15.65.15,1.01,0,.2-.02.41-.05.6.09.14.22.25.4.34s.36.13.56.13c.08,0,.15.04.19.12.04.08.06.24.06.48,0,.13,0,.24,0,.32,0,.08,0,.13-.01.16,0,.03,0,.06-.02.08,0,.02-.01.03-.02.03-.11,0-.24,0-.37-.03-.14-.02-.27-.05-.42-.1-.15-.05-.29-.12-.42-.21-.14-.09-.26-.21-.37-.36-.4.47-.98.7-1.75.7h-2.51Z"/>
          <path class="cls-2" d="M20.96,64.11c-.18,0-.31-.05-.41-.14s-.14-.23-.14-.42c0-.2.03-.36.09-.47.06-.1.15-.16.27-.16h.98c-.1-.11-.18-.29-.25-.53-.07-.24-.11-.49-.11-.75,0-.39.06-.73.18-1.02.12-.29.3-.54.52-.74.22-.2.49-.34.79-.44.31-.1.64-.15,1-.15.34,0,.66.04.96.13.3.08.56.22.78.41s.4.43.53.74c.13.3.2.67.2,1.09s-.04.76-.12,1.06c-.08.31-.21.56-.39.77-.18.21-.42.36-.71.47-.3.1-.66.15-1.09.15h-3.09ZM23.88,62.93c.34,0,.59-.11.76-.32.17-.21.25-.53.25-.95,0-.25-.03-.45-.08-.61-.06-.16-.13-.28-.22-.38-.09-.09-.2-.15-.32-.19-.12-.04-.24-.05-.37-.05-.1,0-.22.02-.34.05-.12.03-.23.1-.33.18-.1.09-.18.21-.25.37-.07.15-.1.35-.1.58,0,.45.08.78.24.99.16.21.41.32.77.32M23.17,57.6c0-.22.07-.4.22-.54.15-.14.33-.21.55-.21s.4.07.53.21c.14.14.21.32.21.54s-.07.41-.21.55c-.14.14-.32.21-.53.21s-.41-.07-.55-.22c-.14-.14-.21-.33-.21-.54"/>
          <path class="cls-2" d="M30.11,63.53c0,.2,0,.35-.02.44,0,.09-.03.14-.05.14-.32,0-.64-.02-.94-.07-.3-.05-.58-.13-.82-.25-.24-.12-.43-.29-.56-.51-.14-.22-.2-.48-.2-.79v-6.16h1.45v5.69c0,.17.02.32.07.44.05.12.11.22.2.29.09.07.18.11.29.14.11.03.22.04.33.04.09,0,.16.05.2.15.04.1.06.25.06.45"/>
          <path class="cls-2" d="M30.05,64.11c-.18,0-.32-.05-.41-.14-.09-.1-.14-.24-.14-.42,0-.2.03-.36.1-.47.06-.11.15-.16.26-.16h3.11c.36,0,.62-.07.77-.23.15-.15.23-.4.23-.76v-.28c0-.73-.43-1.1-1.3-1.1h-2.29v-1.18l2.88-3.05.98.91-2.05,2.14h.85c.42,0,.78.05,1.09.15.3.1.55.24.74.43.19.18.33.4.42.65.09.25.14.51.14.8v.61c0,.28.09.5.26.66.18.16.41.24.7.24.11,0,.18.05.23.14.05.09.07.24.07.45,0,.22-.01.37-.04.46-.03.09-.07.14-.13.14-.28,0-.55-.06-.79-.18-.25-.12-.44-.28-.59-.49-.16.24-.36.41-.62.51-.26.1-.59.15-.98.15h-3.48Z"/>
          <path class="cls-2" d="M36.57,64.11c-.18,0-.32-.05-.41-.14-.09-.09-.14-.23-.14-.42,0-.2.03-.36.1-.47.06-.11.15-.16.26-.16h.27c.13,0,.24-.02.32-.07.08-.05.15-.12.19-.2.04-.08.08-.19.1-.3.02-.12.05-.25.07-.42.03-.39.1-.74.23-1.07.12-.32.29-.6.5-.83.21-.23.46-.41.75-.54.29-.12.62-.19.97-.19.4,0,.76.06,1.07.18.31.12.57.28.78.5.21.21.37.47.48.77.11.3.16.63.16.98,0,.43-.06.8-.2,1.12-.13.32-.31.57-.53.76-.23.19-.48.33-.75.41-.28.09-.55.13-.84.13-.32,0-.61-.04-.87-.12-.26-.08-.54-.24-.85-.48-.18.22-.36.37-.55.44-.19.08-.45.12-.78.12h-.34ZM39.84,60.52c-.19,0-.35.05-.49.15s-.25.24-.35.41c-.1.17-.17.37-.22.59-.05.22-.09.46-.11.73.22.21.43.35.61.42.18.08.37.12.58.12.3,0,.53-.1.71-.31.18-.21.26-.47.26-.81,0-.42-.09-.74-.26-.97-.18-.23-.42-.34-.72-.34"/>
          <path class="cls-2" d="M45.43,64.81c.45,0,.78-.07,1-.22.21-.15.32-.36.32-.64-.15.06-.3.1-.47.12-.16.02-.35.04-.55.04-.35,0-.68-.04-.97-.13-.3-.09-.55-.22-.76-.41-.21-.18-.38-.42-.5-.7-.12-.28-.18-.61-.18-.99,0-.33.05-.65.15-.96.1-.31.26-.58.47-.83.21-.24.47-.43.79-.58.32-.14.7-.22,1.13-.22.32,0,.62.05.9.15.28.1.53.24.75.43.22.19.39.43.52.72.13.29.19.62.19,1v2.07c0,.42-.07.78-.2,1.07-.13.29-.32.53-.56.71-.24.18-.53.31-.87.39-.34.08-.72.12-1.13.12-.21,0-.44-.01-.68-.05-.24-.03-.47-.07-.67-.12l.21-1.12c.16.03.33.07.51.09.18.03.37.04.59.04M44.81,61.74c0,.4.1.7.29.89.19.19.47.29.83.29.18,0,.34-.01.48-.04.13-.02.25-.06.35-.09v-1.09c0-.16-.01-.31-.05-.45-.03-.14-.08-.27-.15-.38-.07-.11-.16-.2-.28-.27-.12-.07-.26-.1-.42-.1-.13,0-.25.02-.38.07-.13.04-.24.12-.33.22-.09.1-.17.23-.23.39-.06.16-.09.35-.09.57"/>
          <path class="cls-2" d="M57.43,64.11c-.49,0-.88-.05-1.17-.14-.29-.09-.51-.27-.66-.51-.14.06-.33.13-.57.2-.24.07-.52.1-.84.1-.29,0-.57-.03-.85-.1-.28-.07-.53-.18-.74-.33-.22-.15-.4-.37-.53-.63-.13-.26-.2-.58-.2-.96s.06-.73.19-1.02c.13-.29.31-.54.53-.74.23-.2.5-.35.81-.44.31-.1.65-.15,1.01-.15h2.28v2.73c0,.32.06.54.17.65.11.11.31.16.6.16h.08c.1,0,.17.05.23.14.05.09.08.24.08.45,0,.25,0,.41-.02.48-.01.07-.05.11-.1.11h-.31ZM52.72,57.6c0-.22.07-.4.21-.54.14-.14.32-.21.55-.21s.4.07.53.21c.14.14.21.32.21.54s-.07.41-.21.55c-.14.14-.31.21-.53.21s-.41-.07-.55-.21c-.14-.14-.21-.32-.21-.55M53.29,61.62c0,.19.03.34.1.46.06.12.14.21.24.28.1.07.21.12.33.14.12.03.25.04.37.04.22,0,.39-.01.51-.04.12-.03.26-.07.4-.13v-1.81h-.83c-.35,0-.63.09-.82.26-.19.18-.29.44-.29.79M54.59,57.6c0-.22.07-.4.21-.54.14-.14.32-.21.55-.21s.4.07.53.21c.14.14.21.32.21.54s-.07.41-.21.55c-.14.14-.32.21-.53.21s-.41-.07-.55-.21c-.14-.14-.21-.32-.21-.55"/>
          <path class="cls-2" d="M60.15,63.36c-.22.3-.57.51-1.03.63-.23.06-.44.09-.65.1-.21.01-.45.02-.74.02-.18,0-.31-.05-.41-.14-.1-.1-.14-.24-.14-.42,0-.2.03-.36.1-.47.06-.11.15-.16.26-.16.29,0,.52,0,.68-.02.17-.01.32-.06.45-.14.08-.05.15-.12.21-.2.06-.08.1-.18.13-.28.03-.1.05-.2.06-.31.01-.1.02-.2.02-.3v-2.31h1.44v2.53c0,.3.11.55.32.74.21.19.5.28.87.28.11,0,.18.05.23.14.05.09.07.24.07.44,0,.25,0,.41-.02.49-.01.08-.05.12-.1.12-.13,0-.28-.01-.45-.04-.17-.03-.33-.07-.5-.13-.17-.06-.32-.14-.47-.23-.14-.1-.26-.21-.35-.34M58.08,65.72c0-.22.07-.4.21-.54.14-.14.32-.21.55-.21s.4.07.53.21c.14.14.21.32.21.54s-.07.41-.21.55c-.14.14-.32.21-.53.21s-.41-.07-.55-.21c-.14-.14-.21-.32-.21-.55M59.96,65.72c0-.22.07-.4.21-.54.14-.14.33-.21.55-.21s.4.07.53.21c.14.14.21.32.21.54s-.07.41-.21.55c-.14.14-.32.21-.53.21s-.41-.07-.55-.21c-.14-.14-.21-.32-.21-.55"/>
          <path class="cls-2" d="M61.77,62.93c.22,0,.4-.02.55-.06.14-.04.25-.1.33-.18.08-.08.13-.18.16-.3.03-.12.04-.26.04-.43v-2.57h1.44v2.82c0,.33-.04.61-.12.85-.08.23-.21.43-.39.59-.18.16-.42.28-.71.35-.3.08-.67.12-1.11.12-.18,0-.32-.05-.41-.14-.09-.09-.14-.23-.14-.42,0-.2.03-.35.09-.46.06-.11.15-.16.27-.16M62.85,57.6c0-.22.07-.4.22-.54.15-.14.33-.21.55-.21s.4.07.53.21c.14.14.21.32.21.54s-.07.41-.21.55c-.14.14-.32.21-.53.21s-.41-.07-.55-.22c-.14-.14-.21-.33-.21-.54"/>
          <rect class="cls-2" x="65.64" y="56.34" width="1.45" height="7.77"/>
          <path class="cls-2" d="M70.45,64.81c.21,0,.4,0,.57-.03.17-.02.3-.05.42-.1.11-.05.2-.12.25-.21.06-.09.08-.21.08-.36h-1.01c-.35,0-.68-.04-.97-.13-.29-.09-.55-.22-.76-.4-.22-.18-.38-.41-.5-.7-.12-.28-.18-.62-.18-1,0-.33.05-.65.15-.96.1-.31.26-.59.47-.83.21-.24.48-.44.8-.58.32-.14.69-.21,1.11-.21.32,0,.62.05.9.15.28.1.53.24.75.43.22.19.39.43.52.72.13.29.19.62.19,1v1.32h.76c.1,0,.18.05.23.14.05.1.08.25.08.46,0,.24-.01.4-.03.47-.02.07-.05.11-.08.11h-.98c-.04.34-.14.63-.28.86-.15.24-.33.43-.57.58-.24.15-.51.25-.83.32-.31.06-.66.1-1.04.1-.21,0-.44-.01-.68-.05-.24-.03-.47-.07-.67-.12l.21-1.12c.16.03.33.07.52.09.18.03.38.04.58.04M69.83,61.74c0,.4.1.7.29.89.19.19.47.29.83.29h.82v-1.22c0-.16-.01-.31-.05-.45-.03-.14-.08-.27-.16-.39-.07-.12-.17-.21-.29-.27-.12-.06-.26-.1-.41-.1-.13,0-.25.02-.38.07-.13.04-.24.12-.33.22-.09.1-.17.23-.23.39-.06.16-.09.35-.09.57"/>
          <path class="cls-2" d="M76.6,63.36c-.23.3-.57.51-1.03.63-.22.06-.44.09-.65.1-.21.01-.45.02-.74.02-.18,0-.31-.05-.41-.14-.1-.1-.14-.24-.14-.42,0-.2.03-.36.09-.47.06-.11.15-.16.26-.16.29,0,.52,0,.68-.02.17-.01.32-.06.45-.14.08-.05.15-.12.21-.2.06-.08.1-.18.13-.28.03-.1.05-.2.06-.31.01-.1.01-.2.01-.3v-2.31h1.44v2.53c0,.3.11.55.32.74.21.19.5.28.87.28.11,0,.18.05.23.14.05.09.07.24.07.44,0,.25,0,.41-.02.49-.01.08-.05.12-.1.12-.13,0-.28-.01-.45-.04-.17-.03-.33-.07-.5-.13-.17-.06-.32-.14-.47-.23-.14-.1-.26-.21-.35-.34M74.54,65.72c0-.22.07-.4.21-.54.14-.14.32-.21.55-.21s.4.07.53.21c.14.14.21.32.21.54s-.07.41-.21.55c-.14.14-.32.21-.53.21s-.41-.07-.55-.21c-.14-.14-.21-.32-.21-.55M76.41,65.72c0-.22.07-.4.21-.54.14-.14.33-.21.55-.21s.4.07.53.21c.14.14.21.32.21.54s-.07.41-.21.55c-.14.14-.32.21-.53.21s-.41-.07-.55-.21c-.14-.14-.21-.32-.21-.55"/>
          <path class="cls-2" d="M78.37,64.11c-.15,0-.29-.04-.39-.13-.11-.08-.16-.23-.16-.43,0-.15.03-.29.08-.42.05-.13.14-.2.28-.2h2.18c.28,0,.5-.03.67-.08.17-.06.3-.14.39-.24.08-.1.14-.22.17-.35.03-.13.04-.28.04-.46,0-.42-.14-.74-.41-.96s-.69-.33-1.26-.33c-.14,0-.32.01-.52.04s-.42.08-.63.15l-.31-1.08c.32-.12.63-.2.93-.25.3-.05.56-.07.78-.07.52,0,.96.06,1.33.19.37.13.67.31.91.54.24.24.41.51.51.82.1.31.15.65.15,1.01,0,.2-.02.41-.05.6.09.14.22.25.4.34.17.08.36.13.56.13.08,0,.15.04.19.12.04.08.06.24.06.48,0,.13,0,.24,0,.32,0,.08,0,.13-.01.16,0,.03,0,.06-.02.08,0,.02-.01.03-.02.03-.11,0-.24,0-.37-.03-.13-.02-.27-.05-.42-.1-.15-.05-.29-.12-.42-.21-.14-.09-.26-.21-.36-.36-.4.47-.98.7-1.75.7h-2.51Z"/>
          <path class="cls-2" d="M84.01,62.93c.22,0,.4-.02.54-.06.15-.04.26-.1.33-.18.08-.08.13-.18.16-.3.03-.12.04-.26.04-.43v-5.62h1.44v5.87c0,.32-.04.6-.12.84-.08.24-.21.43-.39.59-.18.16-.42.28-.71.35-.3.08-.67.12-1.11.12-.18,0-.31-.05-.41-.14-.1-.1-.14-.23-.14-.42,0-.2.03-.36.1-.47.06-.1.15-.16.26-.16"/>
          <rect class="cls-2" x="87.93" y="56.34" width="1.45" height="7.77"/>
          <path class="cls-2" d="M98.89,60.09c.57-.29,1.1-.5,1.58-.62.48-.12.93-.17,1.34-.17.49,0,.91.06,1.27.17.36.12.66.28.89.49.23.21.41.47.52.77.11.3.17.63.17.99v.39c0,.69-.17,1.2-.5,1.52-.33.32-.85.48-1.55.48h-3.82c-.08.34-.21.63-.39.86-.17.24-.38.43-.63.58s-.52.25-.81.32c-.3.06-.61.1-.94.1-.38,0-.73-.05-1.08-.14-.35-.09-.65-.24-.92-.44-.27-.2-.48-.46-.64-.79-.16-.32-.24-.72-.24-1.2,0-.27.05-.61.14-.99.1-.39.24-.76.43-1.12l1.28.47c-.07.18-.13.33-.18.47-.05.14-.08.27-.11.4-.03.12-.05.25-.06.37-.01.12-.02.24-.02.37,0,.27.04.49.13.68.09.18.2.33.34.43.14.11.3.18.48.22.18.04.35.06.53.06.45,0,.79-.12,1.01-.35.22-.23.34-.61.34-1.12v-3.9h1.45v.71ZM101.51,60.51c-.44,0-.88.07-1.32.22-.43.15-.87.35-1.31.61v1.6h3.36c.19,0,.35-.03.48-.08.13-.05.22-.12.29-.21.07-.09.12-.19.14-.32.03-.12.04-.26.04-.41,0-.44-.15-.79-.44-1.04-.3-.25-.71-.37-1.25-.37M100.79,57.6c0-.22.07-.4.22-.54.14-.14.33-.21.54-.21s.4.07.53.21c.14.14.21.32.21.54s-.07.41-.21.55c-.14.14-.32.21-.53.21s-.41-.07-.55-.22c-.14-.14-.21-.33-.21-.54"/>
          <rect class="cls-2" x="105.82" y="56.34" width="1.45" height="7.77"/>
          <path class="cls-2" d="M108.81,65.96c-.21,0-.4-.01-.58-.04-.18-.03-.32-.06-.43-.1l.18-1.13c.08.01.17.03.24.04.08.01.15.02.23.02.27,0,.46-.08.58-.23.12-.16.17-.41.17-.75v-4.38h1.45v3.54h.89c.1,0,.18.05.23.14.05.09.08.25.08.46,0,.23,0,.39-.03.47-.02.08-.05.12-.09.12h-1.08c-.01.38-.07.69-.18.93-.11.24-.25.43-.42.57-.17.14-.37.23-.58.28-.22.05-.44.07-.66.07"/>
          <path class="cls-2" d="M111.73,64.11c-.18,0-.32-.05-.41-.14-.09-.09-.14-.23-.14-.42,0-.2.03-.36.1-.47.06-.11.15-.16.26-.16h.27c.13,0,.24-.02.32-.07.08-.05.14-.12.19-.2.04-.08.08-.19.1-.3.03-.12.05-.25.07-.42.03-.39.1-.74.23-1.07.12-.32.29-.6.5-.83.21-.23.46-.41.75-.54.29-.12.62-.19.97-.19.4,0,.76.06,1.07.18.31.12.57.28.78.5.21.21.37.47.47.77.11.3.17.63.17.98,0,.43-.06.8-.2,1.12-.13.32-.31.57-.53.76-.23.19-.48.33-.75.41-.28.09-.55.13-.84.13-.32,0-.61-.04-.87-.12-.26-.08-.54-.24-.85-.48-.18.22-.36.37-.55.44-.19.08-.45.12-.78.12h-.34ZM115,60.52c-.19,0-.35.05-.49.15s-.25.24-.35.41c-.1.17-.17.37-.22.59-.05.22-.09.46-.11.73.23.21.43.35.61.42.18.08.37.12.58.12.3,0,.53-.1.71-.31.18-.21.26-.47.26-.81,0-.42-.09-.74-.26-.97-.18-.23-.42-.34-.72-.34"/>
          <path class="cls-2" d="M121.4,62.93c.43,0,.73-.09.91-.27.18-.18.26-.51.26-.99v-5.32h1.44v5.8c0,.68-.16,1.18-.48,1.5-.32.32-.82.48-1.52.48h-3.8v-1.18h3.18ZM119.68,56.24c-.1-.18-.15-.36-.15-.52,0-.32.1-.59.31-.79.21-.2.5-.3.86-.3.08,0,.18,0,.3.02.11.01.23.04.34.07l-.14.58c-.14-.05-.3-.07-.48-.07-.19,0-.33.04-.43.13-.1.09-.15.21-.15.37,0,.17.05.3.16.38.11.08.27.13.47.13h.65v.6h-2.17v-.6h.42ZM119.65,57.52h1.44v4.91h-1.44v-4.91Z"/>
          <rect class="cls-2" x="125.39" y="56.34" width="1.45" height="7.77"/>
          <path class="cls-2" d="M130.2,64.81c.45,0,.78-.07,1-.22.21-.15.32-.36.32-.64-.15.06-.3.1-.47.12-.16.02-.35.04-.55.04-.35,0-.68-.04-.97-.13-.3-.09-.55-.22-.76-.41-.21-.18-.38-.42-.5-.7-.12-.28-.18-.61-.18-.99,0-.33.05-.65.15-.96.1-.31.26-.58.47-.83.21-.24.47-.43.79-.58.32-.14.7-.22,1.13-.22.32,0,.62.05.9.15.28.1.53.24.75.43.22.19.39.43.52.72.13.29.19.62.19,1v2.07c0,.42-.07.78-.2,1.07-.13.29-.32.53-.56.71-.24.18-.53.31-.87.39-.34.08-.72.12-1.13.12-.21,0-.44-.01-.68-.05-.24-.03-.47-.07-.67-.12l.21-1.12c.16.03.33.07.51.09.18.03.37.04.59.04M129.59,61.74c0,.4.1.7.29.89.19.19.47.29.83.29.18,0,.34-.01.48-.04.13-.02.25-.06.35-.09v-1.09c0-.16-.01-.31-.05-.45-.03-.14-.08-.27-.15-.38-.07-.11-.16-.2-.28-.27-.12-.07-.26-.1-.42-.1-.13,0-.25.02-.38.07-.13.04-.24.12-.33.22-.09.1-.17.23-.23.39-.06.16-.09.35-.09.57"/>
          <path class="cls-2" d="M142.21,64.11c-.49,0-.88-.05-1.17-.14-.29-.09-.51-.27-.66-.51-.14.06-.33.13-.57.2-.24.07-.52.1-.84.1-.29,0-.57-.03-.85-.1-.28-.07-.53-.18-.74-.33-.22-.15-.4-.37-.53-.63-.13-.26-.2-.58-.2-.96s.06-.73.19-1.02c.13-.29.3-.54.53-.74.23-.2.5-.35.81-.44.31-.1.65-.15,1.01-.15h2.28v2.73c0,.32.06.54.17.65.11.11.31.16.6.16h.09c.1,0,.18.05.23.14.05.09.08.24.08.45,0,.25,0,.41-.02.48-.01.07-.04.11-.1.11h-.31ZM137.5,57.6c0-.22.07-.4.21-.54.14-.14.32-.21.55-.21s.4.07.53.21c.14.14.21.32.21.54s-.07.41-.21.55c-.14.14-.32.21-.53.21s-.41-.07-.55-.21c-.14-.14-.21-.32-.21-.55M138.07,61.62c0,.19.03.34.1.46.06.12.14.21.24.28.1.07.21.12.33.14.12.03.25.04.37.04.22,0,.39-.01.51-.04.12-.03.26-.07.4-.13v-1.81h-.84c-.35,0-.63.09-.82.26-.19.18-.29.44-.29.79M139.37,57.6c0-.22.07-.4.21-.54.14-.14.32-.21.55-.21s.4.07.53.21c.14.14.21.32.21.54s-.07.41-.21.55c-.14.14-.32.21-.53.21s-.41-.07-.55-.21c-.14-.14-.21-.32-.21-.55"/>
          <path class="cls-2" d="M144.93,63.36c-.23.3-.57.51-1.03.63-.23.06-.44.09-.65.1-.21.01-.45.02-.74.02-.18,0-.31-.05-.41-.14-.1-.1-.14-.24-.14-.42,0-.2.03-.36.1-.47.06-.11.15-.16.26-.16.29,0,.52,0,.68-.02.17-.01.32-.06.45-.14.08-.05.15-.12.21-.2.06-.08.1-.18.13-.28s.05-.2.06-.31c0-.1.01-.2.01-.3v-2.31h1.44v2.53c0,.3.11.55.32.74.21.19.5.28.87.28.11,0,.18.05.23.14.05.09.07.24.07.44,0,.25,0,.41-.02.49-.01.08-.05.12-.1.12-.13,0-.28-.01-.45-.04-.17-.03-.33-.07-.5-.13-.16-.06-.32-.14-.47-.23-.14-.1-.26-.21-.35-.34M142.86,65.72c0-.22.07-.4.21-.54.14-.14.32-.21.55-.21s.4.07.53.21c.14.14.21.32.21.54s-.07.41-.21.55c-.14.14-.32.21-.53.21s-.41-.07-.55-.21c-.14-.14-.21-.32-.21-.55M144.74,65.72c0-.22.07-.4.21-.54.14-.14.32-.21.55-.21s.4.07.54.21c.14.14.21.32.21.54s-.07.41-.21.55c-.14.14-.32.21-.54.21s-.41-.07-.55-.21c-.14-.14-.21-.32-.21-.55"/>
          <path class="cls-2" d="M146.69,64.11c-.18,0-.31-.05-.41-.14-.1-.09-.14-.23-.14-.42s.03-.33.09-.45c.06-.12.15-.17.27-.17.29,0,.52,0,.69-.02.17-.01.32-.06.44-.14.09-.06.16-.12.21-.21.06-.08.1-.17.13-.27.03-.1.05-.2.06-.31.01-.11.01-.21.01-.3v-2.31h1.44v2.6c0,.53-.11.96-.33,1.29-.22.34-.58.57-1.09.72-.22.06-.43.09-.64.1-.21.01-.46.02-.74.02M146.89,57.6c0-.22.07-.4.21-.54.14-.14.32-.21.55-.21s.4.07.53.21c.14.14.21.32.21.54s-.07.41-.21.55c-.14.14-.32.21-.53.21s-.41-.07-.55-.21c-.14-.14-.21-.32-.21-.55M148.77,57.6c0-.22.07-.4.21-.54.14-.14.32-.21.55-.21s.4.07.53.21c.14.14.21.32.21.54s-.07.41-.21.55c-.14.14-.32.21-.53.21s-.41-.07-.55-.21c-.14-.14-.21-.32-.21-.55"/>
          <path class="cls-2" d="M153.51,63.53c0,.2,0,.35-.02.44-.01.09-.03.14-.05.14-.32,0-.64-.02-.94-.07-.3-.05-.58-.13-.82-.25-.24-.12-.43-.29-.57-.51-.13-.22-.2-.48-.2-.79v-6.16h1.45v5.69c0,.17.02.32.07.44.05.12.11.22.2.29.09.07.18.11.29.14.11.03.21.04.33.04.09,0,.16.05.2.15.04.1.06.25.06.45"/>
          <path class="cls-2" d="M153.26,62.93c.22,0,.4-.02.54-.06.14-.04.26-.1.33-.18.08-.08.13-.18.16-.3.03-.12.04-.26.04-.43v-2.57h1.44v2.53c0,.3.11.55.32.74.21.19.5.28.87.28.11,0,.18.05.23.14.05.09.08.24.08.44,0,.25,0,.41-.02.49-.01.08-.05.12-.1.12-.13,0-.28-.01-.45-.04-.17-.03-.32-.06-.47-.12-.15-.05-.29-.12-.42-.21-.13-.09-.25-.2-.34-.32-.16.23-.41.41-.73.52-.32.11-.75.17-1.29.17-.17,0-.3-.05-.4-.14-.1-.09-.15-.23-.15-.42,0-.2.03-.36.1-.46.06-.11.15-.16.26-.16M154.31,65.69c0-.22.07-.4.21-.54.14-.14.32-.21.55-.21s.4.07.54.21c.14.14.21.32.21.54s-.07.41-.21.55c-.14.14-.32.21-.54.21s-.41-.07-.55-.21c-.14-.14-.21-.32-.21-.55"/>
          <path class="cls-2" d="M156.96,62.93c.22,0,.4-.02.54-.06.14-.04.25-.1.33-.18.08-.08.13-.18.16-.3.03-.12.04-.26.04-.43v-2.57h1.44v2.53c0,.3.11.55.32.74.21.19.5.28.87.28.11,0,.18.05.23.14.05.09.07.24.07.44,0,.25,0,.41-.02.49-.01.08-.05.12-.1.12-.13,0-.28-.01-.45-.04-.16-.03-.32-.06-.47-.12-.15-.05-.29-.12-.42-.21-.13-.09-.25-.19-.34-.32-.16.23-.41.41-.73.52-.32.11-.75.17-1.29.17-.17,0-.3-.05-.4-.14-.1-.09-.15-.23-.15-.42,0-.2.03-.36.1-.47.06-.1.15-.16.26-.16M158.05,57.6c0-.22.07-.4.22-.54.14-.14.33-.21.54-.21s.4.07.54.21c.14.14.21.32.21.54s-.07.41-.21.55c-.14.14-.32.21-.54.21s-.41-.07-.55-.22c-.14-.14-.21-.33-.21-.54"/>
          <path class="cls-2" d="M160.66,62.93c.22,0,.4-.02.54-.06.14-.04.26-.1.33-.18.08-.08.13-.18.16-.3.03-.12.04-.26.04-.43v-5.62h1.44v5.87c0,.32-.04.6-.12.84-.08.24-.2.43-.38.59-.18.16-.42.28-.71.35-.3.08-.67.12-1.11.12-.18,0-.31-.05-.41-.14-.1-.1-.14-.23-.14-.42,0-.2.03-.36.1-.47.06-.1.15-.16.26-.16"/>
          <rect class="cls-2" x="164.59" y="56.34" width="1.45" height="7.77"/>
          <path class="cls-2" d="M172.19,64.11c-.34,0-.65-.04-.95-.11-.29-.07-.55-.19-.76-.35-.22-.16-.39-.36-.51-.61s-.19-.55-.19-.91c0-.23.03-.5.08-.8.06-.3.15-.6.28-.9l1.29.39c-.09.27-.14.48-.17.63-.03.15-.04.28-.04.4,0,.36.12.63.35.81.24.18.58.27,1.02.27h3.24c.23,0,.41-.02.56-.05.15-.03.27-.1.36-.2.09-.1.15-.23.19-.39.04-.17.05-.38.05-.63v-2.27h1.45v2.91c0,.28-.03.52-.1.75-.06.22-.17.41-.31.57-.14.16-.34.28-.58.37-.24.09-.54.13-.9.13h-4.37ZM172.46,58.22c0-.22.07-.4.21-.54.14-.14.32-.21.55-.21s.4.07.53.21c.14.14.21.32.21.54s-.07.41-.21.55c-.14.14-.32.21-.53.21s-.41-.07-.55-.21c-.14-.14-.21-.32-.21-.55M174.33,58.22c0-.22.07-.4.21-.54.14-.14.32-.21.55-.21s.4.07.54.21c.14.14.21.32.21.54s-.07.41-.21.55c-.14.14-.32.21-.54.21s-.41-.07-.55-.21c-.14-.14-.21-.32-.21-.55"/>
          <path class="cls-2" d="M182.37,63.53c0,.2,0,.35-.02.44,0,.09-.03.14-.05.14-.32,0-.64-.02-.94-.07-.3-.05-.58-.13-.82-.25-.24-.12-.43-.29-.57-.51-.13-.22-.2-.48-.2-.79v-6.16h1.45v5.69c0,.17.02.32.07.44.05.12.11.22.2.29.09.07.18.11.29.14.11.03.21.04.33.04.09,0,.16.05.2.15.04.1.06.25.06.45"/>
          <path class="cls-2" d="M182.3,64.11c-.18,0-.31-.05-.41-.14-.1-.09-.14-.23-.14-.42,0-.2.03-.36.1-.47.06-.1.15-.16.26-.16h.98c-.1-.11-.18-.29-.25-.53-.07-.24-.11-.49-.11-.75,0-.39.06-.73.19-1.02.12-.29.29-.54.52-.74.22-.2.49-.34.79-.44.31-.1.64-.15,1-.15.34,0,.66.04.96.13.3.08.56.22.78.41.22.19.4.43.53.74.13.3.19.67.19,1.09s-.04.76-.12,1.06c-.08.31-.21.56-.39.77-.18.21-.42.36-.71.47-.3.1-.66.15-1.09.15h-3.09ZM185.22,62.93c.34,0,.59-.11.76-.32.17-.21.25-.53.25-.95,0-.25-.03-.45-.09-.61-.06-.16-.13-.28-.22-.38-.09-.09-.2-.15-.32-.19-.12-.04-.24-.05-.37-.05-.11,0-.22.02-.34.05-.12.03-.23.1-.33.18-.1.09-.18.21-.25.37-.07.15-.1.35-.1.58,0,.45.08.78.24.99.16.21.41.32.77.32M184.51,57.6c0-.22.07-.4.22-.54.14-.14.33-.21.55-.21s.4.07.53.21c.14.14.21.32.21.54s-.07.41-.21.55c-.14.14-.32.21-.53.21s-.41-.07-.55-.22c-.14-.14-.21-.33-.21-.54"/>
          <path class="cls-2" d="M191.67,62.93c.43,0,.73-.09.91-.27.18-.18.26-.51.26-.99v-5.32h1.44v5.8c0,.68-.16,1.18-.48,1.5-.32.32-.82.48-1.52.48h-3.8v-1.18h3.18ZM188.77,56.2c.2-.13.39-.23.56-.28.17-.05.31-.08.42-.08.15,0,.29.02.43.05.14.04.27.08.4.14.14.06.28.11.42.15.14.04.29.06.46.06.13,0,.24-.02.33-.05.09-.03.19-.09.31-.16l.27.52c-.13.11-.27.19-.41.24-.14.06-.31.09-.5.09-.18,0-.34-.02-.5-.06-.15-.04-.3-.09-.44-.14-.12-.05-.24-.09-.37-.13-.13-.03-.25-.05-.36-.05-.12,0-.25.02-.38.06s-.26.1-.38.16l-.26-.52ZM189.92,57.52h1.44v4.91h-1.44v-4.91Z"/>
          <rect class="cls-2" x="195.66" y="56.34" width="1.45" height="7.77"/>
          <path class="cls-2" d="M206.62,61.91c0,.31.11.56.32.74.21.18.5.27.86.27.11,0,.18.05.23.14.05.09.07.24.07.44,0,.25,0,.41-.02.49-.01.08-.05.12-.09.12-.24,0-.48-.03-.72-.09-.24-.06-.47-.17-.68-.32-.05.42-.16.78-.33,1.06-.17.29-.38.52-.64.7-.25.18-.54.31-.86.39-.32.08-.66.12-1.02.12s-.73-.05-1.08-.14c-.35-.09-.65-.24-.92-.44s-.48-.46-.64-.79c-.16-.33-.24-.72-.24-1.2,0-.27.05-.61.14-.99.1-.39.24-.76.43-1.12l1.28.47c-.07.18-.13.33-.17.48-.04.14-.08.27-.11.4-.03.12-.05.24-.06.36-.01.12-.02.24-.02.37,0,.27.04.5.13.68.08.18.2.32.34.43.14.11.3.18.48.22.18.04.35.06.53.06.46,0,.8-.12,1.02-.35.22-.24.33-.61.33-1.11v-2.98h1.45v1.61ZM203.12,58.98c0-.22.07-.4.22-.54.14-.14.33-.21.54-.21s.4.07.53.21c.14.14.21.32.21.54s-.07.41-.21.55c-.14.14-.32.21-.53.21s-.41-.07-.55-.22c-.14-.14-.21-.32-.21-.54"/>
          <path class="cls-2" d="M207.99,64.11c-.18,0-.32-.05-.41-.14-.09-.09-.14-.23-.14-.42,0-.2.03-.36.09-.47.06-.11.15-.16.27-.16h.27c.14,0,.24-.02.32-.07.08-.05.14-.12.19-.2.04-.08.08-.19.1-.3.03-.12.05-.25.07-.42.03-.39.1-.74.23-1.07.12-.32.29-.6.5-.83.21-.23.46-.41.75-.54.29-.12.62-.19.97-.19.4,0,.76.06,1.07.18.31.12.57.28.78.5.21.21.37.47.48.77.11.3.16.63.16.98,0,.43-.06.8-.2,1.12-.13.32-.31.57-.53.76-.23.19-.48.33-.75.41-.27.09-.55.13-.84.13-.32,0-.61-.04-.87-.12-.26-.08-.54-.24-.85-.48-.18.22-.36.37-.55.44-.19.08-.45.12-.78.12h-.34ZM211.26,60.52c-.19,0-.35.05-.49.15s-.25.24-.35.41c-.1.17-.17.37-.22.59-.05.22-.09.46-.11.73.22.21.43.35.61.42.18.08.37.12.58.12.3,0,.53-.1.71-.31.18-.21.26-.47.26-.81,0-.42-.09-.74-.26-.97-.18-.23-.42-.34-.72-.34"/>
          <path class="cls-2" d="M222.8,64.11c-.49,0-.88-.05-1.17-.14-.29-.09-.51-.27-.66-.51-.14.06-.33.13-.57.2-.24.07-.52.1-.84.1-.29,0-.57-.03-.85-.1-.28-.07-.53-.18-.74-.33-.22-.15-.39-.37-.53-.63-.13-.26-.2-.58-.2-.96s.06-.73.19-1.02c.13-.29.3-.54.53-.74.23-.2.5-.35.81-.44.31-.1.65-.15,1.01-.15h2.28v2.73c0,.32.06.54.17.65.11.11.31.16.6.16h.09c.1,0,.17.05.23.14.05.09.08.24.08.45,0,.25,0,.41-.02.48-.01.07-.04.11-.1.11h-.31ZM218.09,57.6c0-.22.07-.4.21-.54.14-.14.32-.21.55-.21s.4.07.53.21c.14.14.21.32.21.54s-.07.41-.21.55c-.14.14-.32.21-.53.21s-.41-.07-.55-.21c-.14-.14-.21-.32-.21-.55M218.66,61.62c0,.19.03.34.1.46.06.12.14.21.24.28.1.07.21.12.33.14.12.03.24.04.36.04.22,0,.39-.01.51-.04.12-.03.26-.07.4-.13v-1.81h-.84c-.35,0-.63.09-.82.26-.19.18-.29.44-.29.79M219.97,57.6c0-.22.07-.4.21-.54.14-.14.32-.21.55-.21s.4.07.53.21c.14.14.21.32.21.54s-.07.41-.21.55c-.14.14-.32.21-.53.21s-.41-.07-.55-.21c-.14-.14-.21-.32-.21-.55"/>
          <path class="cls-2" d="M223.11,64.11c-.18,0-.31-.05-.41-.14-.1-.1-.14-.24-.14-.42s.03-.33.09-.45c.06-.12.15-.17.27-.17.29,0,.52,0,.69-.02.17-.01.32-.06.44-.14.08-.06.15-.12.21-.21.05-.08.1-.17.13-.27.03-.1.05-.2.06-.31.01-.1.02-.2.02-.3v-2.31h1.44v2.6c0,.53-.11.96-.33,1.3-.22.33-.58.57-1.09.71-.22.06-.43.09-.65.1-.21.01-.46.02-.74.02M222.92,65.72c0-.22.07-.4.21-.54.14-.14.32-.21.55-.21s.4.07.53.21c.14.14.21.32.21.54s-.07.41-.21.55c-.14.14-.32.21-.53.21s-.41-.07-.55-.21c-.14-.14-.21-.32-.21-.55M224.79,65.72c0-.22.07-.4.21-.54.14-.14.32-.21.55-.21s.4.07.53.21c.14.14.21.32.21.54s-.07.41-.21.55c-.14.14-.32.21-.53.21s-.41-.07-.55-.21c-.14-.14-.21-.32-.21-.55"/>
          <path class="cls-2" d="M229.93,63.53c0,.2,0,.35-.02.44-.01.09-.03.14-.05.14-.32,0-.64-.02-.94-.07-.3-.05-.58-.13-.82-.25-.24-.12-.43-.29-.57-.51-.13-.22-.2-.48-.2-.79v-6.16h1.45v5.69c0,.17.02.32.07.44.05.12.11.22.2.29.09.07.18.11.29.14.11.03.21.04.33.04.09,0,.16.05.2.15.04.1.06.25.06.45"/>
          <path class="cls-2" d="M229.86,64.11c-.18,0-.31-.05-.41-.14-.1-.09-.14-.23-.14-.42,0-.2.03-.36.1-.47.06-.1.15-.16.26-.16h.98c-.1-.11-.18-.29-.25-.53-.07-.24-.11-.49-.11-.75,0-.39.06-.73.18-1.02.12-.29.3-.54.52-.74.22-.2.49-.34.79-.44.31-.1.64-.15,1-.15.34,0,.66.04.96.13.3.08.56.22.78.41.22.19.4.43.53.74.13.3.2.67.2,1.09s-.04.76-.12,1.06c-.08.31-.21.56-.39.77-.18.21-.42.36-.71.47-.3.1-.66.15-1.09.15h-3.09ZM231.14,57.6c0-.22.07-.4.21-.54.14-.14.32-.21.55-.21s.4.07.53.21c.14.14.21.32.21.54s-.07.41-.21.55c-.14.14-.32.21-.53.21s-.41-.07-.55-.21c-.14-.14-.21-.32-.21-.55M232.78,62.93c.34,0,.59-.11.76-.32.17-.21.25-.53.25-.95,0-.25-.03-.45-.09-.61-.06-.16-.13-.28-.22-.38-.09-.09-.2-.15-.32-.19-.12-.04-.24-.05-.37-.05-.11,0-.22.02-.34.05-.12.03-.23.1-.33.18-.1.09-.18.21-.25.37-.07.15-.1.35-.1.58,0,.45.08.78.24.99.16.21.41.32.77.32M233.02,57.6c0-.22.07-.4.21-.54.14-.14.32-.21.55-.21s.4.07.53.21c.14.14.21.32.21.54s-.07.41-.21.55c-.14.14-.32.21-.53.21s-.41-.07-.55-.21c-.14-.14-.21-.32-.21-.55"/>
          <path class="cls-2" d="M238.41,64.81c.21,0,.4,0,.57-.03.17-.02.3-.05.42-.1.11-.05.2-.12.25-.21.06-.09.08-.21.08-.36h-1.01c-.35,0-.68-.04-.97-.13-.29-.09-.55-.22-.76-.4-.22-.18-.38-.41-.5-.7-.12-.28-.18-.62-.18-1,0-.33.05-.65.15-.96.1-.31.26-.59.47-.83.21-.24.48-.44.8-.58.32-.14.69-.21,1.12-.21.32,0,.62.05.9.15.28.1.53.24.75.43.22.19.39.43.52.72.13.29.19.62.19,1v1.32h.76c.1,0,.17.05.23.14.05.1.08.25.08.46,0,.24-.01.4-.03.47-.02.07-.05.11-.09.11h-.98c-.04.34-.14.63-.28.86-.14.24-.34.43-.57.58-.24.15-.51.25-.82.32-.31.06-.66.1-1.04.1-.21,0-.44-.01-.68-.05-.24-.03-.47-.07-.67-.12l.21-1.12c.16.03.33.07.52.09.18.03.38.04.58.04M237.8,61.74c0,.4.1.7.29.89.19.19.47.29.83.29h.82v-1.22c0-.16-.02-.31-.05-.45-.03-.14-.08-.27-.16-.39-.08-.12-.17-.21-.29-.27-.12-.06-.26-.1-.41-.1-.13,0-.25.02-.38.07-.13.04-.24.12-.33.22-.1.1-.17.23-.23.39-.06.16-.09.35-.09.57"/>
          <path class="cls-2" d="M241.96,62.93c.22,0,.4-.02.54-.06.14-.04.26-.1.33-.18.08-.08.13-.18.16-.3.03-.12.04-.26.04-.43v-5.62h1.44v5.57c0,.3.1.55.32.74s.5.28.87.28c.11,0,.18.05.23.14.05.09.07.24.07.44,0,.25,0,.41-.02.49-.01.08-.05.12-.1.12-.13,0-.28-.01-.45-.04-.17-.03-.32-.06-.47-.12s-.29-.12-.42-.21c-.13-.09-.25-.2-.34-.32-.16.23-.41.41-.73.52-.32.11-.76.17-1.29.17-.18,0-.31-.05-.41-.14-.1-.1-.14-.23-.14-.42s.03-.34.09-.45c.06-.11.15-.17.27-.17"/>
          <path class="cls-2" d="M245.67,62.93c.22,0,.4-.02.54-.06.14-.04.26-.1.33-.18.08-.08.13-.18.16-.3.03-.12.04-.26.04-.43v-5.62h1.44v5.87c0,.32-.04.6-.12.84-.08.24-.2.43-.39.59-.18.16-.42.28-.71.35-.3.08-.67.12-1.11.12-.18,0-.31-.05-.41-.14-.1-.1-.14-.23-.14-.42,0-.2.03-.36.1-.47.06-.1.15-.16.26-.16"/>
          <path class="cls-2" d="M258.01,64.67c0-.06,0-.11-.02-.16-.01-.05-.05-.1-.11-.16-.06-.06-.15-.11-.27-.17-.12-.06-.29-.12-.5-.19l-1.28-.41.31-1.16,1.32.39c.08.02.16.04.25.05.09.01.18.03.29.04.1.01.19.02.27.02.08,0,.15,0,.22,0h1.35c.2,0,.3.2.3.59,0,.25,0,.41-.02.48-.01.08-.05.11-.1.11h-.76c.06.06.11.15.15.25.04.1.06.21.06.31,0,.31-.08.59-.24.85-.16.25-.39.47-.7.66-.3.18-.68.32-1.14.43-.46.1-.98.15-1.57.15s-1.14-.05-1.61-.14c-.48-.09-.88-.25-1.21-.46-.34-.21-.59-.48-.77-.81-.18-.33-.26-.73-.26-1.2,0-.26.04-.57.13-.93.09-.35.23-.73.44-1.12l1.29.48c-.11.26-.2.52-.27.79-.07.27-.11.5-.11.71,0,.49.19.86.58,1.1.39.24.96.37,1.73.37.69,0,1.24-.08,1.64-.24.4-.16.6-.37.6-.62"/>
          <path class="cls-2" d="M259.84,62.93c.22,0,.4-.02.54-.06.14-.04.25-.1.33-.18.08-.08.13-.18.16-.3.03-.12.04-.26.04-.43v-2.57h1.44v2.53c0,.3.11.55.32.74.21.19.5.28.87.28.11,0,.18.05.23.14.05.09.07.24.07.44,0,.25,0,.41-.02.49-.02.08-.05.12-.1.12-.13,0-.28-.01-.45-.04-.17-.03-.32-.06-.47-.12-.15-.05-.29-.12-.42-.21-.13-.09-.25-.19-.34-.32-.16.23-.41.41-.73.52-.32.11-.76.17-1.29.17-.17,0-.3-.05-.4-.14-.1-.09-.15-.23-.15-.42,0-.2.03-.36.1-.47.06-.1.15-.16.27-.16M260.93,57.6c0-.22.07-.4.22-.54.14-.14.33-.21.55-.21s.4.07.53.21c.14.14.21.32.21.54s-.07.41-.21.55c-.14.14-.32.21-.53.21s-.41-.07-.55-.22c-.14-.14-.21-.33-.21-.54"/>
          <path class="cls-2" d="M263.73,64.11c-.18,0-.31-.05-.41-.14-.09-.1-.14-.24-.14-.42,0-.2.03-.36.1-.47.06-.11.15-.16.26-.16h.94v-6.59h1.45v3.75c.56-.3,1.09-.5,1.57-.62.48-.12.93-.18,1.34-.18.49,0,.91.06,1.27.18.36.12.65.28.89.49.23.21.41.47.52.77.11.3.17.63.17.99v.39c0,.7-.17,1.21-.51,1.53-.34.31-.85.47-1.54.47h-5.9ZM268.54,60.51c-.45,0-.89.07-1.33.22-.44.15-.86.35-1.28.6v1.6h3.35c.19,0,.35-.03.48-.08.13-.05.22-.12.29-.21.07-.09.11-.19.14-.32.03-.12.04-.26.04-.41,0-.44-.15-.79-.45-1.04-.3-.25-.71-.37-1.24-.37"/>
          <path class="cls-2" d="M274.83,64.81c.21,0,.4,0,.57-.03.17-.02.31-.05.42-.1.11-.05.2-.12.25-.21.06-.09.08-.21.08-.36h-1.01c-.35,0-.68-.04-.97-.13-.29-.09-.55-.22-.76-.4-.22-.18-.38-.41-.5-.7-.12-.28-.18-.62-.18-1,0-.33.05-.65.15-.96.1-.31.26-.59.47-.83.21-.24.48-.44.8-.58.32-.14.69-.21,1.12-.21.32,0,.62.05.9.15.28.1.53.24.75.43.22.19.39.43.52.72.13.29.19.62.19,1v1.32h.76c.1,0,.18.05.23.14.05.1.08.25.08.46,0,.24-.01.4-.03.47-.02.07-.05.11-.08.11h-.98c-.04.34-.13.63-.28.86-.14.24-.33.43-.57.58-.24.15-.51.25-.83.32-.31.06-.66.1-1.04.1-.21,0-.44-.01-.68-.05-.24-.03-.47-.07-.67-.12l.21-1.12c.16.03.33.07.52.09.18.03.38.04.58.04M274.22,61.74c0,.4.1.7.29.89.19.19.47.29.83.29h.83v-1.22c0-.16-.02-.31-.05-.45-.03-.14-.08-.27-.16-.39-.07-.12-.17-.21-.29-.27-.12-.06-.26-.1-.41-.1-.13,0-.25.02-.38.07-.13.04-.24.12-.33.22-.1.1-.17.23-.23.39-.06.16-.09.35-.09.57"/>
          <path class="cls-2" d="M278.39,62.93c.22,0,.4-.02.54-.06.14-.04.26-.1.33-.18.08-.08.13-.18.16-.3.03-.12.04-.26.04-.43v-5.62h1.44v5.87c0,.32-.04.6-.12.84-.08.24-.2.43-.39.59-.18.16-.42.28-.71.35-.3.08-.67.12-1.11.12-.18,0-.31-.05-.41-.14-.1-.1-.14-.23-.14-.42,0-.2.03-.36.1-.47.06-.1.15-.16.26-.16"/>
          <rect class="cls-2" x="282.31" y="56.34" width="1.45" height="7.77"/>
          <path class="cls-2" d="M288.05,65.96c-.21,0-.4-.01-.58-.04-.18-.03-.32-.06-.43-.1l.18-1.13c.08.01.17.03.24.04.08.01.15.02.23.02.27,0,.46-.08.58-.23.12-.15.17-.41.17-.75v-4.38h1.45v3.54h.89c.1,0,.17.05.23.14.05.1.08.25.08.46,0,.23,0,.39-.03.47-.02.08-.05.12-.09.12h-1.08c-.02.38-.07.69-.18.93-.11.24-.25.43-.42.57-.17.14-.37.23-.58.28-.22.05-.43.07-.66.07M288.45,57.6c0-.22.07-.4.22-.54.14-.14.33-.21.54-.21s.4.07.53.21c.14.14.21.32.21.54s-.07.41-.21.55c-.14.14-.32.21-.53.21s-.41-.07-.55-.22c-.14-.14-.21-.33-.21-.54"/>
          <path class="cls-2" d="M290.97,64.11c-.18,0-.31-.05-.41-.14-.09-.1-.14-.24-.14-.42s.03-.34.09-.46c.06-.11.15-.17.27-.17h3.11c.37,0,.63-.08.78-.23.15-.15.23-.41.23-.75v-.28c0-.73-.43-1.1-1.3-1.1h-2.29v-1.18l2.88-3.05.98.91-2.05,2.14h.85c.42,0,.78.05,1.08.15.3.1.55.24.74.42.2.18.34.4.43.65.09.25.14.52.14.81v.7c0,.71-.14,1.22-.43,1.53s-.78.47-1.46.47h-3.48Z"/>
          <path class="cls-2" d="M297.68,65.96c-.21,0-.41-.01-.58-.04s-.32-.06-.43-.1l.18-1.13c.08.01.17.03.24.04.08.01.15.02.23.02.27,0,.46-.08.58-.23.12-.16.17-.41.17-.75v-4.38h1.45v3.54h.89c.1,0,.18.05.23.14.05.09.08.25.08.46,0,.23-.01.39-.03.47-.02.08-.05.12-.09.12h-1.08c-.01.38-.07.69-.18.93-.11.24-.24.43-.42.57-.17.14-.37.23-.58.28s-.43.07-.66.07"/>
          <path class="cls-2" d="M300.6,64.11c-.18,0-.31-.05-.41-.14-.09-.09-.14-.23-.14-.42,0-.2.03-.36.1-.47.06-.11.15-.16.26-.16h.27c.13,0,.24-.02.32-.07.08-.05.14-.12.19-.2.05-.08.08-.19.11-.3.02-.12.05-.25.07-.42.03-.39.1-.74.23-1.07.12-.32.29-.6.5-.83.21-.23.46-.41.75-.54.29-.12.61-.19.97-.19.4,0,.76.06,1.07.18.31.12.57.29.78.51.21.22.37.47.47.77.11.3.16.62.16.97,0,.14,0,.27-.02.39-.01.12-.03.23-.05.34.09.14.23.25.4.34.18.08.36.13.55.13.1,0,.17.05.2.15.03.1.05.25.05.45,0,.13,0,.24,0,.32,0,.08,0,.14-.02.18,0,.04-.01.07-.02.08,0,.01,0,.02-.02.02-.11,0-.24,0-.38-.03-.14-.02-.28-.05-.42-.11-.14-.05-.29-.12-.42-.22-.14-.09-.26-.21-.36-.36-.24.27-.51.46-.81.58-.3.12-.63.17-.98.17-.33,0-.63-.04-.89-.13-.26-.09-.54-.25-.82-.47-.18.22-.36.37-.55.44-.19.08-.45.12-.78.12h-.34ZM303.87,60.52c-.19,0-.35.05-.49.15s-.25.24-.35.41c-.1.17-.17.37-.22.59-.05.22-.09.46-.11.73.21.19.4.33.58.41.18.09.38.13.6.13.3,0,.53-.1.71-.31.17-.21.26-.47.26-.81,0-.41-.09-.73-.26-.96-.17-.23-.41-.35-.72-.35"/>
          <path class="cls-2" d="M307.18,62.93c.22,0,.4-.02.54-.06.14-.04.26-.1.33-.18.08-.08.13-.18.16-.3.03-.12.04-.26.04-.43v-5.62h1.44v5.87c0,.32-.04.6-.12.84-.08.24-.21.43-.39.59-.18.16-.42.28-.71.35-.3.08-.67.12-1.11.12-.18,0-.31-.05-.41-.14-.1-.1-.14-.23-.14-.42,0-.2.03-.36.1-.47.06-.1.15-.16.26-.16"/>
          <rect class="cls-2" x="311.1" y="56.34" width="1.45" height="7.77"/>
          <rect class="cls-2" x="2.58" y="47.73" width="310.04" height=".54"/>
          <path class="cls-5" d="M383.39,3.71c-24.22,0-43.92,19.7-43.92,43.92s19.7,43.92,43.92,43.92,43.92-19.7,43.92-43.92S407.61,3.71,383.39,3.71M362.57,19.16c4.41-5.66,8.6-7.19,15.05-6.29-.63-1.1-1.67-1.81-3.12-2.4,2.58-.38,4.9-.24,6.7,1,.56-1.61,1.34-2.68,2.19-3.57.86.89,1.63,1.96,2.19,3.57,1.8-1.24,4.12-1.38,6.7-1-1.46.59-2.49,1.29-3.12,2.4,6.46-.89,10.64.63,15.05,6.29-3.46-1.67-7.02-2.97-10.49-2.43,7.48,2.33,11.79,6.88,12.59,12.65-4.81-4.75-8.86-7.74-13.46-8.3,5.96,5.59,7.97,11.26,7.39,16.32-3.22-6.24-6.85-10.6-10.83-13.34,2.18,3.98,1.57,8.27,0,11.34-.37-4.1-3-8.33-6.01-12.59-3.01,4.25-5.64,8.49-6.01,12.59-1.57-3.07-2.18-7.36,0-11.34-3.98,2.74-7.61,7.1-10.83,13.34-.58-5.06,1.42-10.72,7.39-16.32-4.6.56-8.66,3.55-13.46,8.3.79-5.77,5.1-10.32,12.59-12.65-3.47-.54-7.03.75-10.49,2.43M394.15,73.33c-1.59,5.7-5.3,10.61-10.74,14.26h-.01c-.43-.28-.85-.58-1.27-.89h0s0,0,0,0c-4.75-3.54-8.01-8.12-9.48-13.36-1.48-5.3-1.05-11.19,1.21-16.57.41-.97.88-1.92,1.39-2.84,1.33.97,2.8,2.01,4.07,2.9-.33.62-.63,1.23-.89,1.86-2.83,6.73-2.76,15.85,4.97,22.69,7.73-6.84,7.8-15.96,4.97-22.69-3.6-8.57-13.43-16.41-26.83-14.29.22,3.26,1.04,9.95,3.97,16.26-.25,2.34-.51,5.43-.59,8.61-8.43-10.98-8.42-26.22-8.42-26.92l.02-1.96,1.91-.44c7.67-1.74,15.13-.84,21.57,2.62,5.82,3.12,10.41,8.17,12.94,14.2,2.26,5.39,2.69,11.27,1.21,16.57M401.25,70.04c-.11-2.97-.34-5.76-.59-8.12,3.44-6.66,4.35-14.06,4.59-17.54-4.55-.72-8.7-.29-12.32.93-1.21-1.29-2.57-2.64-3.83-3.87,5.88-2.52,12.49-3.05,19.26-1.51l1.91.44.02,1.96c0,.72.02,16.69-9.04,27.71"/>
          <path class="cls-2" d="M253.9,68.4c0-.22.07-.4.21-.54.14-.14.32-.21.55-.21s.4.07.53.21c.14.14.21.32.21.54s-.07.41-.21.55c-.14.14-.32.21-.53.21s-.41-.07-.55-.21c-.14-.14-.21-.32-.21-.55"/>
          <path class="cls-2" d="M255.77,68.4c0-.22.07-.4.21-.54.14-.14.32-.21.55-.21s.4.07.53.21c.14.14.21.32.21.54s-.07.41-.21.55c-.14.14-.32.21-.53.21s-.41-.07-.55-.21c-.14-.14-.21-.32-.21-.55"/>
        </g>
      </g>
    </g>
  </g>
</svg>